<?xml version="1.0" encoding="UTF-8" standalone="no"?>
<svg
   xmlns:dc="http://purl.org/dc/elements/1.1/"
   xmlns:cc="http://creativecommons.org/ns#"
   xmlns:rdf="http://www.w3.org/1999/02/22-rdf-syntax-ns#"
   xmlns:svg="http://www.w3.org/2000/svg"
   xmlns="http://www.w3.org/2000/svg"
   xmlns:sodipodi="http://sodipodi.sourceforge.net/DTD/sodipodi-0.dtd"
   xmlns:inkscape="http://www.inkscape.org/namespaces/inkscape"
   viewBox="0 0 164 164"
   version="1.1"
   id="svg331"
   sodipodi:docname="icon-project.svg"
   inkscape:version="0.92.2 (5c3e80d, 2017-08-06)">
  <metadata
     id="metadata337">
    <rdf:RDF>
      <cc:Work
         rdf:about="">
        <dc:format>image/svg+xml</dc:format>
        <dc:type
           rdf:resource="http://purl.org/dc/dcmitype/StillImage" />
        <dc:title></dc:title>
      </cc:Work>
    </rdf:RDF>
  </metadata>
  <defs
     id="defs335" />
  <sodipodi:namedview
     pagecolor="#ffffff"
     bordercolor="#666666"
     borderopacity="1"
     objecttolerance="10"
     gridtolerance="10"
     guidetolerance="10"
     inkscape:pageopacity="0"
     inkscape:pageshadow="2"
     inkscape:window-width="1366"
     inkscape:window-height="715"
     id="namedview333"
     showgrid="false"
     inkscape:zoom="8"
     inkscape:cx="53.258487"
     inkscape:cy="38.776199"
     inkscape:window-x="-8"
     inkscape:window-y="-8"
     inkscape:window-maximized="1"
     inkscape:current-layer="svg331" />
  <path
     d="m 98.833254,88.281808 0.695825,-3.996563 -6.854721,-2.172574 c -0.111167,-1.434269 -0.471611,-2.826478 -1.05682,-4.125258 l 5.151355,-4.48047 -2.58242,-3.372175 -6.356431,2.906919 c -1.141677,-0.946239 -2.445651,-1.72884 -3.883113,-2.317905 l 0.109012,-6.630603 -4.346104,-0.765752 -2.145016,6.276436 c -1.544225,0.06369 -3.038635,0.355255 -4.429021,0.856989 l -5.000398,-4.904217 -3.564154,2.289191 3.334778,5.975662 c -0.988647,1.024174 -1.798451,2.207493 -2.384278,3.521671 l -7.177396,-0.30244 -0.696421,4.000052 6.851881,2.172049 c 0.111216,1.434285 0.47606,2.823666 1.060598,4.125933 l -5.155135,4.479809 2.583027,3.368647 6.359625,-2.902701 c 1.137738,0.942903 2.445023,1.732394 3.879937,2.313702 l -0.106984,6.63553 4.346126,0.76574 2.138782,-6.280263 c 1.550301,-0.05901 3.046309,-0.353918 4.4351,-0.852302 l 4.996574,4.903542 3.56359,-2.285676 -3.330378,-5.978474 c 0.984836,-1.024848 1.79908,-2.21101 2.384251,-3.521673 z M 70.54783,81.247219 c 0.711873,-4.088739 4.886029,-6.769194 9.328515,-5.986458 4.43867,0.782034 7.462704,4.729793 6.750705,8.819429 -0.711274,4.08525 -4.887695,6.761679 -9.327314,5.979481 C 72.856319,89.27677 69.83656,85.332469 70.54783,81.247219"
     id="path321-2-5-23-5"
     inkscape:connector-curvature="0"
     style="fill:#800033;stroke-width:0.9293012" />
  <path
     d="m 93.989427,39.76884 0.824889,-5.851352 -9.902395,-2.346554 C 84.691409,29.51266 84.116141,27.543859 83.223142,25.73593 l 7.180262,-7.064121 -3.839817,-4.571553 -8.972084,4.930822 C 75.918033,17.795385 74.017682,16.816717 71.935396,16.13192 L 71.807937,6.5446165 65.555687,5.9402041 62.754416,15.250895 c -2.207152,0.270147 -4.33326,0.863501 -6.301532,1.748402 l -7.365558,-6.504977 -5.00265,3.716759 5.027828,8.244286 c -1.371044,1.592974 -2.479343,3.395099 -3.261452,5.360372 l -10.284159,0.391168 -0.825603,5.856508 9.898274,2.346127 c 0.220506,2.0583 0.802037,4.022482 1.694264,5.835556 l -7.185749,7.063567 3.840493,4.566442 8.976885,-4.925144 c 1.668742,1.23 3.573105,2.219515 5.651319,2.893493 l 0.130658,9.594127 6.252289,0.604428 2.792195,-9.315497 c 2.216033,-0.264129 4.344259,-0.862435 6.310406,-1.742322 l 7.360072,6.504443 5.001911,-3.711617 -5.021595,-8.248901 c 1.365497,-1.593542 2.48003,-3.400273 3.2614,-5.360415 z M 53.210573,32.873517 c 0.843894,-5.986346 6.702727,-10.338442 13.093652,-9.720615 6.385433,0.617288 10.881826,5.969114 10.037747,11.95677 -0.843168,5.981192 -6.705388,10.327744 -13.092185,9.710344 C 56.857493,44.202024 52.367389,38.854721 53.210573,32.873517"
     id="path321-2"
     inkscape:connector-curvature="0"
     style="fill:#3771c8;stroke-width:1.33748531" />
  <g
     transform="matrix(0.72439896,0,0,0.78110305,88.137426,-58.807658)"
     id="g455"
     style="fill:#008066;fill-opacity:1">
    <circle
       cx="60.177063"
       cy="182.7128"
       id="circle451"
       style="fill:#008066;fill-opacity:1;stroke-width:0.26823017"
       r="11.207729" />
    <path
       inkscape:connector-curvature="0"
       d="M 100.24497,252.24592 C 85.034623,232.41504 86.138523,233.76452 85.442233,233.17173 L 78.41611,203.43269 98.578943,174.93922 c 1.619677,-2.2887 1.15001,-5.51075 -1.04872,-7.19644 -2.19824,-1.6857 -5.29363,-1.19732 -6.91355,1.09163 L 70.23605,197.63525 c -0.28941,0.0602 -12.43209,3.13295 -13.14529,3.42041 L 32.1069,174.58181 c -1.91325,-2.02779 -5.0442,-2.05689 -6.99228,-0.0648 -1.94808,1.99205 -1.97604,5.25086 -0.0623,7.27865 l 28.38728,30.08036 3.72497,15.76611 v 0 l 4.12694,17.46738 -2.28923,8.43538 -19.97693,-3.68056 c -3.22415,-0.59304 -6.30581,1.64638 -6.87676,5.00553 -0.57121,3.35888 1.58166,6.56357 4.80851,7.15815 27.2542,5.02135 25.55383,4.74946 26.30088,4.74946 2.61076,0 4.97332,-1.80007 5.70517,-4.49826 5.66373,-20.87119 5.31055,-19.42649 5.39394,-20.21356 l 2.44276,-0.62521 c 0.24771,0.3763 -0.76839,-0.96501 11.101083,14.51032 L 72.99003,273.97749 c -2.13791,2.58509 -1.85807,6.48469 0.62491,8.71033 2.48225,2.22462 6.22904,1.93563 8.36793,-0.65049 l 18.12132,-21.90794 c 1.86223,-2.25066 1.92109,-5.56231 0.14077,-7.88343 z"
       id="path453"
       style="fill:#008066;fill-opacity:1;stroke-width:0.25022459" />
  </g>
  <g
     id="svg_6"
     transform="matrix(0.17689831,0.06036982,0.05141992,-0.17242368,53.492264,66.526801)">
    <switch
       id="switch98">
      <g
         id="g96">
        <g
           id="g94">
          <path
             inkscape:connector-curvature="0"
             d="m 435.658,218.155 c 0,120.123 -97.377,217.5 -217.503,217.5 -120.124,0 -217.5,-97.377 -217.5,-217.5 0,-120.127 97.376,-217.508 217.5,-217.508 120.126,0 217.503,97.381 217.503,217.508 z"
             id="path88"
             style="fill:#ffffff;stroke:#111184;stroke-miterlimit:10" />
          <path
             inkscape:connector-curvature="0"
             d="m 436.098,218.095 c 0,120.399 -97.601,218 -218.002,218 -120.398,0 -218,-97.601 -218,-218 0,-120.397 97.602,-218 218,-218 120.401,0 218.002,97.602 218.002,218 z M 260.857,63.594 l 1.643,-0.098 0.877,-0.484 1.926,0.625 0.447,-1.03 -2.109,-1.336 -1.004,0.877 -1.154,0.478 -1.465,0.264 -1.814,0.178 0.332,-1.422 -1.146,-0.919 -1.826,-0.613 -1.104,0.024 -0.031,0.98 -0.447,0.81 1.084,0.932 -0.146,1.349 1.238,0.11 -0.367,0.742 1.354,0.552 -0.6,0.717 0.207,1.397 0.074,0.05 1.496,0.232 2.385,0.092 1.838,-0.497 0.025,-1.048 0.992,0.944 1.68,0.092 1.797,-0.398 1.895,-0.84 -1.863,-0.46 -1.889,-0.68 -2.01,-0.699 -1.453,-0.184 z m 80.366,34.954 1.373,0.221 0.109,-0.95 -0.992,-0.625 -0.736,0.362 0.246,0.992 m -0.491,-2.409 1.588,0.576 0.293,-0.772 -0.404,-1.152 -0.619,0.074 -0.68,-1 -1.275,-0.404 0.559,1.336 z m 2.704,1.587 0.82,-0.085 -0.207,-0.932 -0.473,-0.656 -0.338,0.625 0.198,1.048 m -8.313,-14.663 1.324,0.312 -0.699,-0.993 -1.348,-0.545 -0.797,-0.895 0.582,1.269 z m 46.981,62.545 0.49,-0.772 0.76,-0.153 -0.742,-1.661 -0.9,0.404 0.392,2.182 m 52.423,80.573 0.123,-0.453 -0.008,-1.35 -0.141,0.209 0.026,1.594 m -212.674,209.775 -0.233,-0.008 0.484,-0.018 -0.883,-0.006 -1.171,0.037 -0.692,0.018 m -22.73,-222.505 1.68,0.771 1.263,0.767 0.583,-1.558 -1.557,0.209 -1.969,-0.189 m 24.213,222.168 -0.503,0.1 -0.012,0.061 -0.466,0.092 1.6,-0.012 0.724,-0.062 -0.454,-0.035 0.975,-0.08 -0.227,-0.055 z m 46.141,-96.731 2.121,-0.361 0.869,-0.932 -0.086,-1.564 -2.426,0.67 0.637,0.178 0.066,1.279 z m -27.168,-4.23 1.244,0.805 m -51.51,-33.104 0.386,0.633 -0.38,0.422 0.766,0.215 1.177,-0.238 -0.472,-1.061 -0.735,-0.639 -0.742,0.668 m 76.208,16.416 0.361,1.049 0.547,-0.932 0.889,-0.146 -0.668,-0.73 -0.221,0.877 z m 2.691,4.285 1.299,0.926 m -47.01,-17.28 1.777,-0.037 0.589,-1.441 -0.595,0.883 -1.177,-0.287 -0.594,0.882 m -14.277,-19.818 -0.423,-0.736 -1.023,-0.043 -1.612,0.545 -0.999,-0.771 m 5.724,2.863 0.717,-1.785 -1.569,-1.496 m 4.818,8.025 0.013,-1.643 -2.048,-1.361 m 3.629,3.021 1.275,1.791 m -0.006,1.778 1.649,2.838 m 2.219,2.341 1.3,-1.318 -1.766,-0.895 m 4.229,1.379 1.416,0.281 m 4.495,2.153 -2.244,-0.717 -1.293,0.852 m -32.533,-11.034 1.809,-0.283 m 18.653,-37.404 1.312,-0.631 0.503,-1.232 m 4.193,-18.924 1.931,-0.373 1.9,-0.35 1.9,-1.012 -0.969,-0.613 -1.416,0.686 -1.435,0.344 -1.691,0.369 -0.22,0.949 m -13.462,-59.713 1.245,-0.227 -1.508,1.447 1.238,0.073 0.76,-0.901 -0.098,1.569 0.656,-2.14 -0.466,-0.956 z m -5.443,11.838 1.263,0.748 1.49,0.717 -0.448,-1.582 -0.925,-0.411 z m 10.157,-74.118 -0.472,1.073 0.202,1.496 1.44,0.594 1.152,-0.454 1.76,0.423 0.208,-1.005 -0.318,-1.386 -1.128,-0.699 -1.496,-0.233 -1.348,0.191 m -7.111,-21.633 0.393,1.018 -0.031,1.275 -0.754,0.975 -0.294,1.422 0.57,1.318 2.066,0.411 1.195,-0.969 0.98,-1.361 1.128,-0.644 0.27,-1.171 -1.079,-0.545 0.662,-1.232 -0.312,-0.846 -1.306,-0.484 -0.337,-1.03 0.104,-1.416 -0.871,-0.196 -0.638,1.3 -1.17,0.852 z m -2.912,-0.509 0.907,0.785 -0.086,-1.434 -0.821,0.649 m -1.581,7.099 1.128,0.987 1.422,0.754 0.913,-0.527 0.123,-0.742 -1.863,-0.546 -1.723,0.074 m -6.32,-2.207 -0.681,1.496 0.797,0.687 0.208,-1.183 0.472,-0.962 -0.796,-0.038 m -4.039,7.675 1.017,0.368 0.043,-1.232 -1.06,0.864 m -0.007,-11.837 1.183,0.454 0.337,0.674 0.969,0.374 0.803,-0.288 -0.717,-1.104 -1.545,-0.515 -1.03,0.405 m -1.845,0.233 -0.116,0.81 0.588,0.147 0.674,-0.926 -1.146,-0.031 m 0.785,1.134 -0.552,0.987 0.791,0.778 1.606,-0.135 1.073,-1.171 -0.717,-0.325 -1.079,0.012 z m -9.214,3.163 0.423,0.723 0.975,-0.502 1.183,-0.828 -1.367,0.062 -1.214,0.545 m -70.544,-47.636 -2.47,1.422 m -10.482,9.532 -0.846,0.767 -0.123,0.558 0.907,-0.895 0.062,-0.43 m -10.538,16.116 0.454,0.165 0.631,-0.846 z m -0.331,1.784 -0.043,0.864 0.693,-0.895 z m 0.282,2.893 0.073,0.699 0.681,-0.068 m -0.349,7.669 1.146,0.742 0.447,0.288 0.76,-0.368 -0.178,-0.687 z m 1.557,1.563 0.454,0.815 0.576,0.619 0.919,-0.46 0.055,-1.189 -1.018,0.502 z m 34.07,-18.286 -1.152,0.306 0.123,1.116 -1.299,1.453 0.717,0.95 0.435,-1.293 0.95,-1.048 z m -12.339,9.238 -0.864,1.109 -0.331,1.005 0.545,0.687 0.821,-0.331 0.282,-0.883 -0.233,-0.791 z m -7.743,22.074 -1.288,2.023 1.048,0.472 1.177,-0.147 0.901,0.846 0.919,-0.993 0.074,-0.871 1.189,0.803 0.601,-1.061 -1.392,-0.393 -1.312,-0.318 z M 283.49,92.522 282.859,91.075 m -19.144,-1.078 1.219,0.852 0.344,-0.631 z m 138.746,10.972 -0.551,-0.853 -0.326,-0.459 -0.238,-0.276 0.109,0.282 0.312,0.625 -0.404,-0.447 -0.527,-0.619 -0.336,-0.251 -0.111,0.067 -0.373,-0.227 m -22.59,-30.214 0.496,0.551 -1.305,-1.397 -1.115,-1.159 -1.422,-1.446 -0.209,-0.246 -0.221,-0.245 -1.055,-1.066 m -74.577,-48.164 -0.471,-0.325 -0.117,-0.153 -1.434,-0.355 -0.277,0.006 -1.557,-0.582 -1.305,-0.436 -2.109,-0.784 -1.705,-0.711 -1.365,-0.454 -1.246,-0.54 -1.869,-0.637 -1.582,-0.436 1.178,0.405 1.189,0.362 1.055,0.411 1.275,0.435 1.041,0.423 1.613,0.65 2.004,0.76 1.018,0.454 1.771,0.601 1.482,0.527 1.411,0.379 m -179.834,8.836 -0.467,0.212 -0.552,0.441 -1.379,0.772 -0.815,0.595 -0.631,0.497 1.066,-0.687 0.423,-0.135 0.815,-0.404 0.166,0.159 0.821,-0.656 1.196,-0.656 1.539,-0.797 1.784,-0.84 1.116,-0.497 1.416,-0.558 1.416,-0.594 0.497,-0.387 -1.343,0.472 -0.496,0.08 -0.331,0.037 0.343,-0.27 -0.693,0.245 z m 4.473,-2.522 m 2.299,-1.281 m 1.244,-0.491 m -10.47,6.173 -0.251,0.282 -0.27,0.306 m -1.367,0.908 -0.57,0.576 -0.723,0.705 -0.502,0.644 0.502,-0.527 0.95,-0.57 0.386,-0.478 z m -2.752,2.721 -0.472,0.393 -0.282,0.637 0.601,-0.576 z m -1.863,2.416 -0.055,0.392 m 1.685,2.636 -0.607,0.11 -0.576,0.797 0.3,0.208 0.576,-0.098 -0.128,-0.411 z m 40.054,-19.469 -1.03,0.203 -0.214,0.545 1.349,-0.429 z m -29.976,27.419 0.055,1.22 0.871,-0.258 0.11,-0.656 z m 19.07,-23.716 -1.208,0.019 -0.607,-0.19 -0.895,-0.024 -1.214,0.325 -0.907,0.085 -0.736,-0.061 -1.036,0.116 -0.877,0.049 -0.57,-0.031 -0.227,-0.129 -0.772,0.221 -1.201,0.282 -0.368,-0.098 -0.981,0.147 -0.178,-0.166 -1.612,0.484 0.3,0.123 -0.264,0.294 -1.023,0.502 -1.428,0.595 0.858,-0.166 0.987,-0.435 0.729,-0.184 1.103,-0.435 0.914,-0.264 0.699,-0.019 0.239,0.19 0.404,0.043 -0.202,0.325 -0.975,0.545 -1.576,0.687 1.079,-0.251 1.392,-0.349 1.392,-0.325 1.238,-0.214 1.245,-0.196 1.385,-0.264 0.767,0.104 0.938,0.031 1.245,-0.129 1.091,-0.019 1.061,-0.19 0.595,-0.417 -1.232,0.178 -0.019,-0.276 z m 11.2,38.607 -0.987,-1.03 -1.061,0.184 0.202,0.956 m 0,-0.001 -0.613,0.729 0.454,1.416 1.49,-0.803 0.515,-1.453 z m 32.575,-24.703 -1.422,0.129 -1.851,0.809 0.748,0.411 1.999,-0.043 0.864,-0.674 z m 1.938,0.846 -0.834,-0.386 -0.398,0.398 0.54,0.343 0.692,-0.355 m -1.889,4.53 -1.771,-0.288 -2.274,0.564 -0.889,0.625 0.766,0.724 1.612,-0.668 1.575,-0.785 z m 101.808,3.341 -1.473,-0.932 -1.219,-0.098 -0.08,1.066 1.477,0.374 1.295,-0.41 m -37.516,5.498 -0.768,-0.601 -1.483,-0.086 -0.778,-0.84 -0.748,-0.049 -1.146,0.687 -0.447,-0.57 -1.066,-0.123 -0.717,0.864 1.379,0.074 0.852,-0.245 1.526,0.582 1.146,-0.38 0.754,0.668 1.496,0.019 m -1.244,1.459 -0.338,-0.907 -1.373,-0.466 -0.208,0.533 -1.367,0.117 -1.018,0.699 1.668,0.116 1.103,-0.527 0.644,0.533 0.889,-0.098 m 2.035,-0.3 -0.828,-0.607 -0.232,0.619 1.06,-0.012 m 2.133,3.543 0.055,-0.57 -0.441,-0.509 0.797,-0.233 -0.123,-0.674 -0.803,-0.533 -0.857,0.3 -1.25,-0.123 -0.037,0.417 1.525,0.601 -0.631,0.202 -0.154,0.509 1.919,0.613 m 63.291,55.918 0.59,-0.417 -0.773,-1.478 -0.385,1.22 0.568,0.675 m 10.299,-3.261 -1.33,-0.833 0.441,0.76 m 2.348,4.382 1.049,-0.153 m 1.023,8.962 -0.631,-2.065 -1.324,-1.453 0.387,1.833 1.018,0.778 0.55,0.907 m 5.481,-42.046 0.656,-0.214 -0.773,-0.926 -0.777,-0.919 -0.166,1.036 1.06,1.023 m -1.901,-1.312 0.496,0.055 -0.508,-0.925 -0.676,0.423 0.688,0.447 m 59.731,34.899 0.602,-0.417 0.986,0.993 0.508,0.128 -0.152,-0.883 0.65,0.11 -0.877,-1.373 0.57,-0.233 -1.201,-0.588 -0.896,-0.472 v -0.889 l -1.012,-0.233 -0.379,0.576 -0.215,0.729 0.57,1.379 z m 4.855,-0.135 -0.24,-1.091 -0.055,-0.907 0.215,-0.368 -0.436,-1.52 -0.479,-1.526 -0.648,-0.705 0.662,1.404 -0.541,-0.478 0.393,1.312 -0.029,0.675 0.453,1.263 -0.332,-0.16 0.105,1.122 z m -5.713,-18.47 0.527,0.221 -0.369,-1.073 -0.734,-1.256 -0.625,-0.736 -0.412,-0.858 -0.355,-0.092 -1.447,-1.894 0.926,1.471 0.688,1.195 0.576,1.012 0.594,0.815 z m 1.159,7.601 0.582,0.361 -0.662,-1.066 -0.932,-1.03 1.012,1.735 m -5.659,-2.2 -0.594,-0.441 0.33,0.649 m 1.692,1.281 0.582,0.448 m -44.828,105.785 1.318,-0.214 m 5.745,-1.748 1.287,-1.066 m 31.453,14.337 0.943,0.503 0.178,-1.023 -0.355,-1.569 -0.264,1.275 z m 2.304,-1.084 0.607,0.49 0.453,-0.944 -0.447,-0.669 -0.656,0.344 z m 2.483,-3.433 0.416,-1.379 -0.924,-1.734 0.379,-0.951 -0.275,-0.913 -0.252,0.784 0.148,1.08 0.115,2.365 0.393,0.748 M 16.069,172.218 16.32,172.156 m 0.159,0.571 -0.123,0.833 0.08,0.595 0.484,-0.631 -0.092,-0.693 -0.349,-0.104 m -0.073,5.002 -0.318,1.134 0.196,1.116 0.448,-1.875 -0.326,-0.375 m -0.141,3.819 0.208,1.048 m -0.183,0.779 -0.117,0.975 -0.263,0.656 0.19,0.441 0.27,0.251 0.159,-1.385 -0.196,-0.288 -0.043,-0.65 M 380.676,93 l -0.363,-1.165 -0.441,-1.336 -0.398,-1.159 -0.545,-0.251 -0.57,-1.134 -0.33,0.571 -0.055,0.066 0.447,1.306 0.668,1.618 0.82,1.091 1.117,1.575 z m -2.711,32.967 -0.287,-1.355 -0.785,-1.201 1.287,1.079 0.865,0.552 0.82,1.085 1.209,1.416 -1.203,0.074 -0.863,-0.545 -1.043,-1.105 m 3.814,4.506 0.84,0.76 1.09,0.417 1.215,1.134 1.17,1.324 0.951,-0.098 -0.705,-1.459 0.121,-0.871 -0.938,-1.275 -0.998,-1.097 -1.031,-0.932 -1.035,-0.742 -1.158,-0.08 0.668,1.741 0.115,0.871 -0.305,0.307 m 8.244,-1.956 1.018,0.196 0.043,-0.699 0.814,-0.717 0.24,-0.876 0.766,0.006 0.189,-1.275 -0.76,-1.054 -0.754,-0.362 -1.164,-1.404 -0.994,-1.606 0.412,1.778 0.172,1.759 -0.031,1.232 -0.436,0.521 -0.049,1.061 0.534,1.44 m -233.724,237.029 -0.288,1.281 1.208,0.92 -1.202,0.41 1.208,0.674 1.238,-0.619 -0.919,-1.305 z m 49.659,-49.567 1.189,0.049 1.177,1.195 1.521,0.312 1.202,-0.547 1.226,0.338 1.202,0.02 -0.606,-1.166 -1.478,-0.576 -1.802,-0.35 -1.802,-0.33 -1.526,0.521 z m -22.546,-14.492 2.299,0.27 0.668,-1.115 2.023,0.215 1.238,-0.754 1.202,-0.768 1.729,0.484 2.323,0.479 -1.778,0.447 1.116,0.975 1.741,0.424 2.636,0.189 1.128,0.957 1.471,0.367 1.747,0.693 1.771,-0.191 0.588,0.584 0.251,1.477 1.747,1.221 2.673,0.086 0.588,1.195 -1.226,0.826 -0.907,0.834 2.397,0.074 1.796,-0.275 1.79,0.029 1.79,0.326 1.79,0.006 1.183,-0.59 1.79,-0.287 -0.294,-0.588 -0.889,0.012 -1.184,-1.141 -1.783,-0.312 -1.214,0.301 0.331,-1.453 -1.496,-0.295 -1.771,-0.342 -1.759,-1.189 -1.478,-0.633 -1.434,-0.924 -1.741,-0.945 -1.747,-0.637 -1.759,-0.092 -1.152,-1.258 -1.416,-0.648 -1.447,-0.699 -1.741,-0.123 -1.716,-0.736 -1.741,-0.146 -1.765,0.441 -1.759,0.117 -1.753,0.141 -1.796,0.686 -1.202,0.748 -0.08,1.152 z m 36.4,14.192 2.434,1.098 0.569,-0.59 1.814,-0.035 1.521,0.27 1.515,-0.355 1.814,0.244 1.52,1.631 1.195,-1.477 -0.018,-0.854 1.789,-0.668 0.025,0.846 1.796,-0.373 2.065,-0.711 1.803,-0.129 1.226,1.061 1.171,-1.527 -1.569,-1.305 -2.991,-0.338 1.435,-0.955 -2.072,0.141 -0.649,-1.129 -2.078,-0.152 -1.797,-0.184 -2.396,0.109 -1.171,0.602 -2.09,-0.797 -2.115,0.055 -1.171,0.889 1.79,-0.037 0.913,1.141 0.019,1.135 1.539,1.391 -1.508,0.895 -1.809,0.043 -1.521,-0.545 -1.81,-0.256 z m 26.475,-0.246 1.52,0.123 1.49,-0.43 1.471,-0.158 0.846,-0.951 -1.225,-0.717 -2.072,0.227 -2.109,0.209 z m -39.483,-23.907 0.245,1.232 -0.889,0.857 1.698,1.527 0.834,1.809 0.613,-1.154 -0.846,-1.207 0.03,-1.207 -0.827,-1.82 z m 37.056,-93.893 1.759,0.717 0.748,0.852 1.508,0.393 1.686,0.086 1.41,-0.233 -1.023,-1.141 -1.307,-0.411 -1.502,-0.423 -1.66,-0.062 z m 2.083,11.849 0.98,0.827 1.656,0.724 2.293,0.619 -0.197,-1.245 1.129,-1.14 -1.871,0.601 -1.488,0.227 -1.607,-0.386 -0.385,-1.257 -0.51,1.03 m -43.301,-57.045 1.514,-0.135 1.771,-1.373 0.037,-0.288 -1.146,-0.104 -1.379,0.484 z m 6.387,-0.037 -0.337,2.096 0.687,0.957 0.871,-1.49 0.245,-1.478 z m 48.489,50.339 0.717,1.49 1.717,-1.018 2.139,-0.111 1.834,-0.417 1.826,-0.435 1.68,-0.098 0.307,1.219 -0.994,1.227 1.533,-0.024 0.742,-2.158 0.906,-0.595 1.293,0.006 -0.104,2.005 0.963,-1.251 0.41,1.508 1.436,-0.405 -0.135,-1.942 -0.123,-1.943 -1.098,0.668 0.068,-1.999 -0.693,0.515 -0.375,1.766 -0.771,-0.46 0.066,-1.324 1.238,-2.33 -1.672,0.791 -0.926,-1.055 0.723,-1.857 -1.33,-0.3 -1.557,0.411 -1.447,0.729 -1.703,-0.913 0.734,-1.159 -1.496,-0.257 -1.439,1.63 0.307,-2.023 0.453,-1.397 0.473,-2.072 0.066,-1.974 -1.115,0.276 -1.27,1.281 -0.447,1.385 -0.189,1.68 -0.533,2.066 -0.086,2.28 -0.773,2.108 -0.453,1.729 0.859,0.128 -0.951,1.484 z m -59.928,-56.451 2.219,0.319 -0.184,1.802 1.606,-0.086 1.343,-1.373 1.152,-1.073 1.238,0.129 1.275,1.023 1.269,1.3 1.686,-1.367 -1.575,-1.018 -0.662,-1.569 -1.073,-1.287 -1.698,-1.392 -1.342,-1.63 -0.208,-1.827 -1.79,1.245 -0.668,1.422 -0.662,2.011 0.006,2.152 -1.932,1.219 m 17.159,-12.763 0.552,1.771 1.716,-0.251 0.987,-0.877 0.245,-1.477 -0.711,-1.159 -1.649,-0.019 -1.14,2.012 m -14.437,-15.723 0.785,1.612 0.478,1.833 0.809,1.563 1.747,1.441 1.815,0.227 2.495,0.815 1.33,-0.166 1.821,1.582 1.141,-0.527 1.312,-1.667 0.681,1.472 2.163,1.777 -0.502,2.293 1.618,-1.141 1.048,1.741 1.784,1.122 0.539,1.741 0.564,1.465 -0.95,1.189 -1.085,1.508 -1.251,1.189 1.44,1.76 -1.562,1.232 -2.115,-0.006 -2.36,-0.662 -0.318,1.17 -0.944,0.288 -0.619,1.447 0.864,1.545 2.483,0.067 1.25,-0.883 1.778,0.294 1.661,0.883 1.551,0.576 1.428,0.852 0.08,1.52 1.508,1.128 1.343,0.546 1.783,0.472 0.669,0.858 1.71,0.778 1.686,0.466 1.809,0.11 -0.209,-1.483 -1.477,-1.091 -1.612,-1.343 -1.416,-1.109 -0.858,-1.422 2.06,0.736 1.704,1.036 2.011,0.987 2.133,-0.264 0.013,-2.416 -1.502,-1.336 -0.429,-1.766 -1.263,-1.042 -1.938,-1.306 -0.059,-0.093 -1.106,-1.593 0.074,-2.403 2.801,1.49 1.122,1.986 2.054,0.926 0.172,-1.839 1.68,-0.864 0.061,-1.496 0.509,-2.219 -1.354,-0.962 -1.691,-0.926 -1.778,-0.962 -1.557,-1.257 -2.219,0.251 -2.054,-1.287 -0.215,-1.735 1.71,-0.754 -1.747,-1.263 0.355,-1.496 -1.28,-1.618 -1.907,-0.999 -2.011,-1.913 -1.459,-0.797 -1.894,-0.227 -0.03,-1.698 -0.399,-1.11 -1.624,0.264 -1.214,-0.693 -1.115,-0.368 -1.397,1.055 -1.337,-0.074 -1.263,0.932 0.583,-1.655 -0.57,-1.6 0.54,-1.478 -0.429,-0.871 -1.354,0.147 -1.68,0.932 -1.533,1.238 -0.423,1.649 -0.386,1.392 0.129,1.428 -0.944,-1.263 0.203,-1.416 0.202,-1.379 0.76,-1.324 0.809,-0.846 1.753,-0.699 -1.465,-0.276 -1.649,-0.233 -1.238,0.656 -1.496,1.152 -0.92,1.281 -0.852,1.293 z m -3.089,-12.046 0.925,0.877 1.306,0.852 0.625,-1.68 -0.257,-1.269 -1.042,-0.27 -1.557,1.49 m 3.089,-6.166 -0.552,1.085 0.429,1.557 1.661,0.135 0.65,0.993 -0.141,1.361 -0.76,1.263 -0.38,1.625 1.716,1.104 1.753,0.515 1.625,0.417 1.759,0.233 1.275,-0.957 1.373,0.969 1.833,-0.423 0.717,-1.312 0.122,-1.281 -1.557,-0.932 -1.397,-0.128 -1.563,-0.503 -1.943,0.533 -1.741,-0.68 -1.023,-1.122 0.619,-0.521 -0.748,-0.815 -0.141,-0.968 -1.471,-0.319 -0.772,-1.104 z m 9.072,-12.561 -0.221,1.545 0.729,1.177 1.662,0.246 1.293,-0.258 1.71,0.153 1.839,-0.276 -1.231,0.84 -1.876,0.362 -0.858,0.601 -1.25,-0.687 -0.944,1.612 0.876,0.656 -0.3,1.398 0.178,1.232 -1.11,0.245 -1.625,1.637 1.361,1.011 h -1.96799 l -0.343,1.288 0.68,0.668 -1.061,0.227 -1.373,0.748 -0.38,1.299 1.446,0.545 2.226,0.583 1.14,-0.423 1.134,0.417 1.048,-0.466 0.38,1.109 1.882,-0.699 1.189,-1.281 -1.183,-1.41 1.379,-1.005 -0.202,-1.097 1.734,-0.215 0.656,-1.594 v -1.582 l 0.692,-1.575 1.686,-0.742 0.858,-1.545 0.607,-1.226 1.085,-1.25 1.104,-1.594 -0.136,-0.76 0.718,-0.969 0.466,-0.858 -0.196,-0.649 -0.962,-0.245 -0.896,-0.638 -1.36,-0.208 -1.257,-0.386 -1.263,0.062 -0.914,0.318 -1.072,-0.221 -1.857,0.307 -1.018,0.944 -1.343,0.619 -0.987,0.484 -0.159,0.625 -1.22,-0.196 -1.193,1.097 z m -12.646,3.758 -0.135,0.662 0.791,0.932 -1.091,0.631 0.123,0.877 1.146,0.889 0.932,0.331 -0.074,1.435 1.116,-0.227 1.287,0.214 1.03,0.184 0.699,-0.828 0.03,-0.828 -1.011,-1.471 -0.729,1.208 -0.883,1.097 -0.644,-0.374 0.257,-1.122 0.631,-1.171 -0.411,-1.245 -0.999,-0.362 -0.46,-0.809 -0.858,-0.349 z m -4.064,7.797 -0.166,1.435 -0.411,1.073 0.11,1.532 1.625,-0.166 -0.11,1.968 2.011,0.65 1.177,-1.44 0.46,-1.331 0.552,-1.158 -0.791,-1.257 -1.336,-0.552 -0.993,0.644 -0.772,1.226 -0.172,-1.397 -0.325,-1.061 z m -13.927,-6.822 -0.392,1.435 0.864,0.435 0.619,0.858 1.594,-0.35 1.226,-0.57 0.417,1.122 1.918,-0.527 0.619,-1.091 1.3,-0.221 -0.172,-1.122 -1.263,0.343 -0.932,-0.748 -1.171,-0.049 -1.416,0.141 -1.674,0.423 z m 1.532,5.529 0.729,0.975 0.417,0.914 1.416,-0.312 v 1.33601 l -1.429,-0.012 -0.123,0.828 0.822,0.785 1.122,0.159 1.397,-0.337 1.374,-0.092 1.612,0.944 1.202,0.227 0.981,-1.226 1.023,-1.048 -0.766,-0.889 -0.588,-1.428 0.539,-1.52 -1.06,0.319 -1.257,0.637 0.362,0.76 -0.76,0.656 -0.184,1.183 -1.397,-0.975 0.337,-1.195 0.013,-0.981 -0.54,-1.299 -0.852,-0.705 -1.281,0.607 -1.655,0.864 -1.454,0.825 z m -13.915,3.917 -0.037,1.925 -0.987,1.992 1.766,0.203 1.22,0.49 2.054,-0.778 2.023,-1.514 2.017,-0.123 1.778,-0.055 1.888,-0.098 -0.423,-1.643 0.251,-1.612 -1.379,-0.926 -0.613,-1.539 -1.723,-0.172 -1.667,-0.545 -1.14,1.796 -1.606,1.14 -1.821,0.785 z m 165.216,292.125 0.883,-1.092 1.852,-1.574 0.846,-1.109 1.838,-1.625 0.627,-1.041 0.355,-0.926 0.582,-1.055 1.195,-1.115 0.336,-0.963 0.65,-1.281 0.834,-1.385 0.066,-0.883 0.295,-1.012 0.049,-0.902 0.516,-1.158 0.594,-1.533 1.662,-1.482 1.459,-1.562 1.531,-1.932 0.975,-1.502 1.203,-1.648 0.846,-0.969 1.611,-1.57 0.908,-1.373 1.391,-1.672 0.889,-1.375 0.914,-1.594 0.9,-1.611 0.453,-1.734 -0.072,-1.072 -0.332,-1.117 -0.336,-1.158 -0.596,-1.012 -1.666,0.559 -1.496,1.066 -1.471,0.607 -0.926,-0.283 -1.459,0.186 -0.975,-0.283 -0.951,-0.33 -1.49,-0.049 -1.494,-0.057 -1.521,-0.104 -1.562,0.766 -1.588,1.195 -1.582,0.748 -1.562,0.098 -1.6,0.725 -1.588,0.072 -1.613,0.504 -1.648,1.342 -1.912,1.207 0.57,-1.508 -0.791,-0.729 -0.502,-0.883 -1.662,1.115 -0.545,-0.668 -2.227,0.459 -1.666,0.191 -1.938,-0.141 -1.961,0.723 -1.16,0.84 -1.152,2.379 -0.846,-0.123 0.596,-1.312 0.562,-1.98 -1.979,0.264 -1.717,0.805 -1.723,0.361 -1.459,1.139 -0.012,1.545 -0.576,1.949 -0.846,-1.488 -2.061,1.299 0.332,-1.631 0.562,-1.514 1.459,-1.379 1.141,-1.256 1.441,-1.84 0.25,-2.158 -2.01,0.436 -0.631,-1.674 -1.195,-1.52 -0.057,-1.648 -1.789,-0.891 -1.184,-0.367 -1.789,-0.43 -1.516,-0.557 -1.789,-0.221 -1.502,-0.055 -1.184,0.055 -1.789,0.006 -1.791,0.195 -1.783,0.455 -1.777,0.705 -1.797,0.434 -2.096,0.221 -0.865,-0.715 -0.08,-0.057 -1.262,-0.467 -1.852,-0.588 -1.471,0.553 0.232,-1.312 -0.674,-1.104 -1.863,-0.656 -1.863,-0.643 -2.158,-0.607 -2.717,0.986 0.541,-1.887 -0.693,-1.43 -2.145,-0.158 -1.559,-0.24 -1.195,0.441 -1.305,-1.109 -1.258,-0.846 3.01,-1.006 -2.121,0.332 -2.451,0.367 -2.133,0.301 -1.783,1.562 -1.828,0.768 -2.15,-0.025 -1.57,-0.318 -0.656,-0.717 -1.52,0.164 -1.551,0.412 -2.152,0.201 -2.188,0.447 -0.619,-0.986 -0.374,-1.299 -1.538,-0.668 -1.864,-0.117 -1.562,0.104 -0.681,-2.096 -1.502,0.895 0.619,1.299 -1.508,0.877 -1.558,0.619 -1.562,0.582 0.03,1.852 1.294,1.754 0.024,1.795 -2.207,0.627 -0.312,-1.287 -0.95,-0.988 0.92,-1.594 0.919,-1.072 -0.649,-1.299 -0.957,-1.545 1.857,-0.619 0.907,-1.35 -0.606,-0.771 -1.269,-0.234 -1.214,0.848 -0.92,1.121 -1.557,0.559 -1.227,0.826 -1.857,0.834 -2.507,-0.221 -0.932,1.055 -1.532,-0.246 -1.569,0.533 -0.938,1.037 -0.307,1.562 v 1.55698 l -1.581,0.234 -0.944,1.281 -1.888,1.256 -0.012,2.287 -1.576,-1.559 -1.232,-1.078 -1.232,-1.055 -1.569,-1.078 -1.576,-0.35 -1.526,-0.57 -1.875,-0.098 -0.95,0.969 -1.882,0.404 -1.882,0.367 -2.219,0.35 -1.22,-0.863 -1.569,-0.135 -0.564,-1.355 -1.545,-0.92 -1.533,-1.184 -0.882,-1.402 -0.883,-1.387 -0.546,-1.391 0.638,-1.264 0.062,-1.594 0.692,-1.795 0.067,-1.613 0.074,-1.881 0.975,-1.27 0.098,-2.465 -0.595,-0.625 -1.465,-0.686 -0.065,-0.059 -1.388,-1.498 -1.508,-0.449 -1.171,-0.441 -1.82,0.068 -1.784,-0.539 -1.833,0.307 h -1.80899 l -2.047,-0.846 -2.164,0.484 -1.404,-1.074 -1.453,-0.82 1.857,-0.785 1.061,-2.084 0.128,-1.674 0.503,-2.752 0.772,1.525 1.018,-1.545 0.472,-1.918 0.417,-1.66 0.417,-1.668 0.735,-1.631 1.582,-1.227 0.117,-1.422 -0.821,-0.717 -1.729,-0.27 -1.428,-0.51 -1.747,-0.012 -1.784,0.295 -1.747,-0.037 -1.741,-0.043 -1.195,0.367 -0.515,1.938 -0.423,1.385 -0.705,1.012 -0.141,1.428 -1.201,0.35 -1.232,0.613 0.196,0.902 -2.066,0.115 0.055,-0.539 -2.004,-0.748 -2.084,0.393 -2.029,-0.16 -2.078,0.049 -1.128,-0.281 -0.993,-1.391 -1.625,-1.006 -1.618,-0.986 -0.956,-1.729 -0.644,-1.65 -0.594,-1.924 -0.932,-1.43 -0.656,-1.359 -0.343,-1.594 0.736,-0.969 -1.453,-1.643 -0.276,-1.877 0.785,-1.25 0.288,-1.723 0.294,-1.734 0.3,-1.734 0.852,-1.582 0.815,-1.6 1.061,-1.238 0.012,-1.551 0.319,-1.76 -0.208,-1.926 0.619,-1.686 1.25,-0.877 1.778,-0.729 1.784,-0.785 1.618,0.135 1.189,-0.625 1.22,-0.625 -0.509,-1.703 1.128,-0.314 -0.257,1.473 1.716,-0.51 1.361,0.037 1.87,0.141 1.478,0.938 1.532,0.676 1.465,-0.613 1.41,1.525 0.08,1.244 1.557,0.65 1.9,0.043 1.171,-0.373 1.023,0.484 0.693,1.053 0.625,-0.52 -1.458,-1.484 0.08,-0.619 0.876,-0.436 0.374,-0.863 -1.343,-0.246 -1.374,0.111 -1.042,-0.502 0.031,-0.062 1.005,-1.373 1.465,1.207 1.71,-0.619 1.336,0.232 1.563,0.564 0.907,-0.777 0.398,1.33 1.606,0.25 1.643,-0.086 1.637,-0.061 0.975,1.066 1.557,0.84 0.411,1.57 1.655,-0.086 1.416,-0.762 1.649,-0.104 1.275,1.355 1.226,2.268 0.797,0.404 0.404,1.877 -0.361,1.471 -0.086,1.232 1.128,-0.221 -0.65,1.758 0.19,1.258 1.036,1.293 0.76,1.588 0.748,1.869 1.373,1.301 0.509,1.545 1.422,-0.215 0.883,-0.516 0.932,-1.74 0.392,-2.104 0.092,-2.096 -0.754,-2.158 -0.736,-2.201 0.055,-1.201 -1.036,-1.906 -0.436,-1.869 -0.717,-1.895 -0.19,-1.863 -0.147,-1.863 0.919,-1.785 0.907,-1.783 1.692,-1.447 1.649,-0.82 1.649,-1.135 1.104,-1.176 0.84,-1.227 1.612,-0.865 1.336,-0.244 1.355,-1.189 1.318,-1.232 1.851,-0.258 0.797,-0.926 -1.557,-0.029 1.575,-1.209 1.023,0.014 0.54,-0.934 0.006,-1.273 -1.293,-0.02 -1.545,-0.029 1.306,-0.576 1.018,-0.326 0.766,0.35 0.767,1.244 -0.767,-1.244 -0.227,-1.588 -0.509,-1.25 -1.263,-1.299 0.019,-1.246 0.294,-1.58 -1.747,-1.287 1.489,0.336 -0.214,-1.256 -0.209,-1.895 0.497,-1.244 1.244,-0.625 -0.521,1.244 -0.013,1.287 -0.496,1.545 1.213,0.662 -0.245,0.946 0.993,0.006 -0.49,1.244 -0.533,1.883 0.76,-0.295 0.527,-1.881 0.999,-1.582 0.748,-0.943 -1.244,-2.201 -0.46,-1.9 0.969,0.65 0.735,1.25 1.478,-1.256 0.95,-1.9 0.471,-1.82 0.006,-0.086 -0.962,-0.633 0.938,-1.262 1.429,-0.975 1.422,-0.682 1.428,-0.037 1.429,-0.049 1.404,-0.705 0.435,-1.273 0.748,0.918 1.141,-0.705 0.03,0.645 1.869,-0.754 -0.073,-1.256 0.056,0.949 -1.416,0.086 -0.564,-1.57 -0.956,-0.562 0.649,-0.98 -0.27,-0.945 0.632,-1.324 0.84,-1.311 -0.037,-0.645 1.336,-0.693 1.539,-0.754 0.809,-1.666 0.724,0.594 1.521,-0.777 1.293,-0.725 1.251,-1.078 -0.129,-1.287 1.992,-0.209 1.71,-0.809 1.814,-1.527 -0.073,1.318 1.717,-0.57 -1.601,1.514 -1.011,0.736 -1.429,1.471 -0.503,1.631 0.632,1.539 1.465,0.791 1.214,-1.416 1.189,-1.459 0.723,-1.361 1.33,-0.184 1.643,-1.201 2.488,-1.355 2.066,-1.006 0.227,-1.317 1.387,-0.907 1.281,-1.52 -1.938,-0.914 -0.148,-1.912 -0.746,-0.521 -0.547,1.723 -1.012,1.76 0.27,1.574 -1.342,-0.085 -1.41,0.846 -1.789,-0.036 -2.127,-0.969 -1.588,-0.441 -1.123,-1.777 -0.49,-2.164 0.227,-1.644 -2.047,0.901 -1.888,-1.704 2.513,-0.282 1.171,-0.797 1.312,-1.134 -0.171,-1.245 -0.944,-0.833 -1.729,-0.429 -1.809,0.515 -1.809,0.539 -1.562,1.11 -1.386,0.735 -1.594,1.085 -1.361,1.397 -0.956,1.63 -0.969,1.355 -1.005,1.318 -1.704,0.734 1.018,-1.342 0.778,-1.306 0.999,-1.312 0.748,-1.35 0.944,-1.624 1.349,-1.397 1.521,-1.692 1.654,-0.147 0.228,-1.625 0.882,-1.349 1.735,-0.84 1.397,-0.159 1.606,-0.196 1.753,-0.54 1.37,0.113 0.059,-0.009 1.404,-0.208 1.574,-0.245 1.301,0.441 1.717,-0.644 2.176,-0.398 0.912,-1.459 0.719,-1.416 0.662,-1.453 1.703,-1.336 2.189,-0.803 1.164,-1.563 0.863,-1.183 -1.385,-2.274 -0.049,-1.63 -1.938,-1.477 -1.605,0.374 -0.559,-1.465 -2.213,0.141 1.459,-1.594 -1.281,-0.687 -2.01,0.117 -0.98,-1.109 -2.33,0.147 -0.693,-1.483 -1.912,-0.613 -1.109,-1.066 -0.367,-1.833 0.605,-1.354 -1.188,-0.748 -0.252,-1.244 -1.226,-1.042 -1.324,-1.68 -1.152,-1.704 -1.435,-1.661 -1.251,-1.692 -0.833,-1.122 -0.742,1.324 -0.64,1.002 0.81,1.128 -0.576,1.637 -1.336,1.079 -0.491,1.281 -1.875,1.109 -1.551,-2.023 -1.165,-0.208 -1.116,-1.477 -0.104,-1.214 -0.007,-1.845 -0.601,-1.508 0.185,-1.557 -1.404,-0.202 -1.386,0.074 -1.428,-0.853 0.393,-1.226 -1.398,-0.858 -1.244,-1.202 -1.354,-0.882 -2.048,0.637 h -1.188 l -1.612,-0.637 -1.754,-0.337 -1.207,0.871 -0.074,1.532 1.005,0.944 -0.521,1.483 -0.68,1.514 0.895,0.95 0.227,1.845 -0.055,1.544 -1.036,1.483 -1.299,0.282 -0.245,1.208 1.103,1.269 1.134,0.674 0.589,2.17 0.301,1.569 0.459,2.176 -0.067,2.501 -1.115,1.544 -1.68,1.483 -1.698,1.202 -1.704,0.858 0.631,1.575 0.472,1.606 0.08,2.195 -0.098,1.882 0.853,1.931 -1.453,1.827 -2.041,1.177 0.104,1.257 -1.508,-1.349 -0.656,-1.637 -1.06,-1.331 -0.834,-1.661 -1.354,-1.71 0.552,-1.845 0.159,-1.533 -0.366,-1.568 -0.027,-0.057 0.846,-2.758 -1.692,-1.097 -2.146,-0.227 -2.146,-0.257 -1.882,-1.833 -1.643,-0.84 -1.287,-0.84 -0.901,-1.741 -1.63,-1.533 -1.882,-0.987 -1.716,-1.594 -1.637,0.307 -1.3,0.331 0.312,-1.195 -0.257,-1.667 0.398,-1.478 -0.19,-2.298 -1.177,-0.583 -1.336,-0.024 -0.166,-1.612 0.552,-1.778 0.803,-2.054 0.895,-1.342 0.901,-1.373 1.41,-1.557 1.3,-1.281 1.306,-0.306 0.509,-1.759 1.704,-0.27 1.833,-0.257 0.313,-1.796 1.612,-1.833 2.427,0.441 1.6,-1.569 1.557,-1.582 0.362,-1.759 1.992,-2.133 -0.895,-1.318 1.913,-0.019 0.472,0.956 1.918,0.803 1.839,-1.281 2.041,-1.312 0.588,-2.011 -1.686,-1.024 0.227,-1.741 1.618,-0.742 0.245,-2.152 -1.845,-0.613 -0.061,-1.195 -1.649,-0.736 -1.612,-0.196 -0.331,1.71 -0.264,2.011 -0.374,1.999 -1.741,0.975 -0.288,1.416 -1.202,0.435 -0.858,-2.219 0.637,-1.68 0.337,-1.441 -0.809,-1.913 -1.919,2.042 -0.527,-1.888 -0.441,-1.594 -1.128,-1.134 1.803,-1.116 -0.208,-1.821 -0.546,-1.287 -0.497,-1.606 -0.178,-1.821 1.128,-0.895 -0.159,-1.202 1.189,-0.312 1.25,0.276 1.067,-1.232 1.104,-1.195 0.76,-0.711 -0.827,-0.815 -1.833,-0.919 -2.176,0.055 -0.944,1.226 -0.184,1.398 -0.368,1.673 -0.521,1.354 -0.619,1.619 -1.25,0.57 -1.165,1.588 -1.312,1.63 0.54,2.287 1.587,1.894 -1.349,1.189 -0.049,1.808 -1.821,1.367 -0.466,-0.049 -1.042,1.489 -0.938,-1.447 0.605,-1.818 0.014,-0.076 2.213,-0.748 -0.325,-2.213 -1.177,-2.17 -1.508,1.386 -1.716,0.68 1.392,1.999 -1.324,0.821 -0.932,1.882 -1.784,-0.233 -2.017,-1.336 -1.134,-1.489 -1.417,-1.784 -0.331,-2.268 -1.747,-0.166 -1.876,-0.178 -1.526,0.607 0.901,1.416 -1.22,1.122 -0.968,-1.14 -0.674,-1.348 -1.895,-0.27 -1.974,-0.398 -0.962,-1.22 -1.288,-0.754 1.048,-0.828 1.386,0.257 0.306,-1.6 -0.821,-1.557 -1.453,-1.055 -0.785,-1.489 -0.736,-1.631 -0.074,-1.698 -1.496,-1.134 -1.667,0.852 -0.594,-0.723 1.496,-1.557 -2.36,0.833 -0.27,-1.018 0.993,-1.618 0.374,-2.182 -2.047,1.042 -1.202,-0.276 0.919,-1.312 -1.784,-0.374 -1.943,-0.38 -1.404,0.062 0.024,-1.128 -0.913,-0.638 -1.521,0.104 -1.361,0.846 -0.085,-1.673 0.392,-1.526 0.147,-1.533 -0.705,-1.354 0.251,-1.122 0.319,-1.324 -0.558,-1 -0.76,-0.785 0.276,-1.33 -0.533,-1.152 0.307,-1.71 -0.417,-1.171 -0.362,-1.023 1.085,-1.441 -0.459,-1.581 0.809,-0.779 0.411,-1.539 -1.857,-0.515 -0.35,-1.202 -1.637,-0.797 -0.423,-0.95 -1.539,-0.57 -1.692,0.178 -1.342,-0.099 -0.595,-1.122 -0.307,-1.048 -1.771,0.301 -1.25,1.263 -1.085,1.587 -1.741,1.061 -1.14,1.44 -1.373,1.288 -1.22,-0.037 -0.086,-1.729 1.465,-0.564 -0.019,-0.901 -0.871,-0.895 -0.828,-0.919 -1.397,-0.681 -0.595,0.803 -0.355,1.128 -1.128,-0.031 -1.152,0.748 -0.607,1.82 0.3,1.355 -0.502,1.354 0.919,0.552 0.608,0.771 0.036,0.075 -1.434,0.251 -1.379,1.146 -1.735,0.386 -0.398,-1.392 -1.483,-0.362 0.809,-1.44 -0.864,-0.601 -1.122,0.214 -1.686,-0.214 -2.237,0.196 -1.416,1.502 -1.667,1.085 -1.649,1.465 -1.336,1.244 0.049,1.128 1.416,0.527 -1.857,1.532 -1.11,0.153 -1.33,1.11 0.631,0.545 0.227,1.968 -1.49,1.741 1.122,-0.202 -0.104,1.066 0.404,0.668 -1.888,0.883 -1.931,0.778 -1.22,-0.38 -1.483,-0.258 -1.232,-0.797 -1.68,-0.018 -0.392,-1.257 -0.895,-0.962 -1.367,-0.221 -0.839,-1.14 -1.331,-0.895 -0.779,0.672 1.091,1.146 1.085,0.772 0.606,0.999 0.858,0.472 0.638,1.128 0.956,0.962 0.711,0.957 1.404,-0.245 0.981,0.668 1.324,0.871 1.483,-0.031 1.606,0.564 1.41,0.668 1.238,0.085 1.539,-0.092 0.221,-1.318 1.189,-0.276 1.091,0.545 1.557,0.006 1.716,-0.595 1.349,0.117 1.508,0.649 0.35,0.938 h -1.3 l -0.962,-0.84 -1.906,0.975 -1.827,0.288 -0.319,0.987 -1.275,-0.037 0.711,1.183 1.41,0.355 1.416,0.208 0.436,1.073 1.851,-0.355 1.759,-1.361 -0.086,1.379 0.472,1.036 -0.386,1.355 -0.404,1.949 -0.104,1.796 0.693,1.257 0.729,1.245 -0.055,1.71 0.417,1.214 1.22,0.123 -1.343,1.392 -0.037,1.625 -0.558,1.949 -0.344,1.649 -0.006,1.557 -1.097,1.68 -0.509,1.918 -1.048,1.716 -1.152,2.054 1.814,-1.729 1.373,-1.845 1.392,-1.293 0.264,-1.673 0.49,0.619 1.354,-0.864 -0.806,1.416 -0.046,0.062 -0.999,0.754 -1.134,1.606 -1.159,1.098 1.214,-0.031 1.177,-0.552 -0.552,1.275 -0.441,1.398 -0.466,-1.459 -1.44,0.239 -1.189,1.521 0.76,0.429 -1.104,1.091 -0.637,1.232 -0.282,1.116 0.012,1.434 -0.576,1.673 1.521,-1.594 0.95,-2.219 0.644,-1.667 0.11,1.091 0.576,0.631 -0.962,0.797 -0.717,1.569 -0.362,1.453 0.067,1.44 1.269,0.38 -1.704,0.968 -0.319,1.03 -1.373,-0.055 -0.729,1.968 0.135,1.478 -0.687,2.464 0.423,1.716 -0.858,1.796 -0.19,1.533 -0.779,0.975 0.3,2.017 0.754,1.483 0.577,1.753 0.135,1.802 0.208,1.796 0.386,1.533 1.496,-0.019 -1.079,1.557 0.166,1.336 -0.331,1.747 -0.607,0.294 -0.312,1.759 -1.471,1.25 0.215,-0.644 -1.079,-0.031 1.6,-0.76 -0.484,-1.576 -1.109,-0.883 -0.853,-1.918 -0.674,0.662 -0.258,1.011 -0.484,1.649 -0.637,1.907 -0.558,1.14 -0.57,1.183 0.981,1.551 -1.312,-1.048 -0.705,1.067 -0.68,1.422 -1.159,1.079 -1.012,1.582 -1.146,1.465 -1.459,1.582 -1.618,1.496 -0.834,1.704 -0.184,1.428 -0.638,1.851 -1.104,1.471 -1.41,1.208 -0.466,0.797 0.159,1.312 -0.123,1.447 -0.619,1.091 -0.588,1.447 0.067,1.625 0.374,1.453 -0.736,0.944 0.871,1.042 0.429,-0.81 0.515,0.803 -0.601,0.271 -0.208,1.759 -0.429,-1.471 -0.558,1.49 -0.043,1.465 0.705,0.539 -0.699,1.367 -0.601,0.674 0.515,1.869 0.055,1.913 0.288,2.428 -0.714,1.577 -0.058,0.066 1.41,1.709 1.048,1.465 0.876,1.344 0.754,0.502 -0.27,1.238 0.76,0.51 0.693,1.863 v 1.78301 l -0.289,1.932 0.11,2.176 -0.147,1.668 0.172,1.482 -0.325,0.84 0.491,1.336 -0.534,1.41 0.521,0.65 -0.515,2.064 1.048,1.332 0.772,2.162 0.49,1.625 0.478,1.6 -0.478,1.416 -1.379,0.203 -1.41,-1.146 0.925,1.863 0.074,1.367 0.681,1.066 0.846,1.471 1.091,0.613 0.57,1.613 1.097,1.574 0.178,2.049 -0.497,1.68 -1.018,0.766 1.587,1.809 0.858,1.723 0.803,2.01 1.122,1.82 0.368,2.717 2.097,-0.859 -0.589,-1.869 -0.754,-2.273 -1.158,-0.584 -0.319,-1.764 0.601,-0.314 -0.607,-1.611 0.319,-1.115 -0.429,-2.158 0.037,-1.932 -0.853,-2.408 -0.361,-2.164 -0.767,-1.723 0.098,-1.938 -0.398,-1.906 -0.619,-2.035 -0.368,-1.869 -0.778,-1.465 -0.227,-1.514 0.729,-1.252 0.098,-1.666 0.331,-1.539 0.619,-1 1.134,1.693 0.963,0.221 0.527,1.322 0.876,1.141 -0.509,1.43 0.055,2.059 -0.178,1.238 0.38,1.895 0.098,2.053 0.785,2.41 0.815,2.402 1.521,1.098 -0.515,1.703 1.183,2.232 0.374,1.465 0.699,0.344 0.38,1.496 -0.797,0.889 -0.233,0.846 0.962,1.422 1.692,1.752 0.448,2.41 0.932,1.711 0.926,1.66 0.84,2.244 0.723,1.539 0.932,1.961 0.754,1.533 0.025,2.477 0.833,1.256 -0.233,1.109 -1.244,0.717 0.349,1.055 -1.214,0.398 0.717,2.098 0.922,2.123 0.028,0.059 1.692,1.568 1.379,1.717 0.803,1.791 1.992,1.637 1.821,0.949 0.809,0.289 1.183,1.574 1.68,2.047 1.557,1.117 1.569,1.078 1.539,1.361 1.625,0.828 1.563,1.336 1.576,1.33 1.931,0.846 1.937,1.127 1.913,1.08 2.078,-0.283 1.809,-0.373 1.722,0.441 1.416,0.662 1.398,0.883 1.342,1.158 0.791,1.023 1.343,1.711 1.379,1.41 1.066,1.354 1.698,1.189 1.734,0.883 1.778,0.355 1.729,1.152 0.834,0.975 1.508,0.283 1.747,1.121 1.478,0.252 2.133,0.355 0.625,-0.717 1.152,1.551 -1.232,-0.197 1.152,1.539 1.146,1.238 1.465,1.562 1.447,1.264 1.496,1.256 -0.055,1.318 -0.349,1.281 0.533,1.355 1.244,0.441 0.576,0.576 1.293,-0.871 0.889,1.141 2.115,1.299 1.195,1.152 -0.343,1.502 1.857,0.441 0.914,0.857 0.95,-0.398 1.864,0.418 1.857,0.68 0.919,1.08 1.876,0.146 0.27,1.771 1.582,-0.129 1.894,-0.631 -1.563,-1.104 -0.282,-1.055 1.582,-0.381 1.251,-0.691 0.962,-1.238 1.238,0.066 1.563,0.846 0.926,1.33 1.244,0.051 -0.956,0.967 0.925,1.797 1.576,1.324 1.238,1.299 -0.307,1.209 0.288,1.986 -0.006,1.465 0.337,1.465 -0.65,1.422 1.25,0.986 -1.263,1.158 -0.956,1.613 -2.201,-0.086 -1.3,1.348 0.343,1.184 -1.6,0.148 0.644,1.195 -1.9,0.588 -2.544,0.754 -0.267,1.686 -0.04,0.109 -1.594,0.785 v 1.32999 l -1.588,0.338 0.65,1.814 0.006,1.299 -0.644,0.369 1.293,0.527 1.563,1.385 0.331,-1.258 1.557,0.094 -0.607,0.809 -0.631,1.238 -1.25,0.35 -1.882,0.697 -1.875,0.908 0.012,1.043 0.619,1.268 1.306,1.312 -1.269,0.699 1.288,0.691 1.9,0.73 1.257,0.857 1.257,1.061 0.662,1.379 1.894,0.877 1.263,1.195 0.656,1.152 0.656,1.135 0.619,1.121 1.894,1.49 0.65,1.084 1.244,1.086 0.644,0.723 1.238,0.705 0.644,1.031 1.238,1.359 -0.288,0.975 1.558,0.994 1.22,0.637 1.214,0.631 2.458,0.785 1.833,0.129 1.82,0.748 2.434,0.545 1.201,0.129 1.803,0.533 1.802,0.375 1.171,0.686 1.214,0.215 1.771,0.631 -0.049,0.854 0.227,0.949 0.533,1.055 -0.374,0.822 -0.062,0.783 0.264,0.748 -0.38,0.773 -0.337,0.754 -0.938,0.777 -0.062,0.705 -0.056,0.693 -0.343,0.691 0.214,0.645 -0.049,0.545 -0.9,0.467 0.509,0.686 -1.238,0.865 -0.062,0.582 -0.907,0.607 -0.325,0.564 -0.889,0.568 0.521,0.326 0.184,0.662 -1.116,0.293 -0.349,0.492 0.227,0.52 0.196,0.436 -0.043,0.289 0.509,0.25 -1.171,0.59 0.221,0.373 -0.828,0.275 -0.343,0.369 -0.84,0.367 -1.073,0.355 -0.576,0.324 -0.533,0.301 -0.778,0.117 -0.037,0.27 -1.274,0.023 -0.546,0.301 0.724,0.184 -0.024,0.178 0.238,0.172 0.196,0.184 -1.263,0.197 -0.03,0.184 -0.248,0.043 -0.237,0.08 0.002,0.076 0.206,0.027 0.466,0.068 1.153,-0.006 0.515,-0.086 h 1.403 l -0.741,0.092 0.687,0.012 -0.718,0.049 -0.067,0.104 -0.735,0.068 0.436,0.023 -0.969,0.051 h 0.44099 l -1.165,0.035 1.808,0.094 2.5,-0.094 2.406,-0.125 2.062,-0.094 1.906,-0.125 1.812,-0.156 2.125,-0.156 1.688,-0.125 2.344,-0.25 1.281,-0.125 1.312,-0.156 0.906,-0.125 0.149,-0.143 0.228,-0.037 -0.067,-0.012 0.833,-0.123 1.986,-0.289 -1.76,0.209 1.533,-0.238 0.748,-0.057 1.373,-0.189 0.373,-0.086 -0.221,-0.037 -2.195,0.338 -1.273,0.123 0.25,-0.143 -0.264,-0.078 1.074,-0.197 1.305,-0.104 1.33,-0.146 2.33,-0.338 2.016,-0.367 0.412,-0.143 -0.344,-0.012 0.98,-0.301 0.662,-0.207 -0.766,0.012 0.447,-0.221 0.594,-0.006 2.158,-0.361 2.201,-0.418 1.49,-0.312 1.967,-0.404 1.998,-0.467 1.539,-0.385 1.857,-0.496 0.76,-0.332 1.502,-0.516 1.312,-0.52 0.121,-0.264 -1.17,0.227 -0.447,-0.117 1.078,-0.516 -0.76,-0.018 -2.268,0.295 -0.307,-0.148 0.717,-0.367 1.244,0.006 1.98,-0.441 0.846,-0.043 1.613,-0.281 1.771,-0.484 1.918,-0.436 1.525,-0.441 1.656,-0.594 1.49,-0.602 0.502,-0.35 1.729,-0.699 1.637,-0.797 0.865,-0.6 1.508,-0.682 1.752,-0.783 1.754,-0.791 1.385,-0.828 1.416,-0.852 0.877,-0.705 1.422,-0.9 1.631,-0.994 1.527,-0.82 0.889,-0.467 0.906,-0.797 0.639,-0.717 0.146,-0.559 0.508,-0.889 0.375,-0.68 1.562,-1.012 1.6,-1.061 1.84,-1.172 1.594,-1.09 1.654,-0.834 2.012,-1.195 0.883,-0.154 1.654,-1.281 1.508,-0.625 -0.264,-0.299 2.084,-0.975 1.436,-0.521 1.496,-0.65 1.543,-0.791 1.479,-0.668 0.338,-0.68 1.666,-1.092 1.668,-1.104 0.406,-0.831 m -143.595,-283.12 0.098,1.11 -0.294,1.299 1.128,0.398 0.404,1.68 0.264,1.913 1.784,-0.693 1.777,-0.067 0.962,-1.845 0.3,-1.912 -1.183,-1.024 1.649,-1.152 0.043,-1.759 -1.342,0.337 -1.159,-0.662 -1.299,0.172 -0.699,0.956 0.159,1.772 -1.435,-0.644 z m -17.845,-3.923 0.527,1.354 -1.128,0.736 0.233,1.367 1.379,1.202 1.446,0.723 0.699,1.545 -1.895,-0.024 -1.489,-0.876 -1.336,-0.607 -1.146,1.949 0.687,1.49 1.478,0.864 -0.76,2.372 1.71,0.631 2.078,0.656 2.292,0.098 1.863,0.171 1.852,-0.484 0.435,1.539 0.993,1.478 1.729,0.159 1.79,-0.49 -0.006,-1.397 1.514,0.233 0.92,-1.441 -1.619,-1.244 -1.134,-1.447 -0.423,-1.612 1.214,-1.716 0.368,-1.894 0.423,-1.379 1.667,-1.091 1.14,-0.926 -0.27,-1.159 -1.508,-0.521 -1.741,1.14 -1.532,1.226 -0.809,-1.667 -1.459,-0.135 -0.478,-1.165 -1.98,0.374 0.944,-1.833 -0.981,-0.564 -1.434,0.3 -1.508,-0.135 -1.447,0.135 -0.699,0.754 -1.373,0.251 z m -60.595,34.046 -1.447,1.723 -0.043,1.367 -0.975,1.729 -0.515,1.729 0.019,2.33 0.828,-1.87 -0.006,-1.385 1.036,-0.711 0.87,-1.839 1.692,-0.95 -0.803,-0.876 z m -2.507,16.398 -0.331,2.274 0.423,1.667 0.435,1.655 -0.692,0.644 0.521,1.312 0.104,1.336 0.797,0.681 -0.545,0.766 0.681,1.79 0.594,1.312 1.202,0.141 0.067,-1.98 -0.337,-2.268 v -2.06001 l 0.343,-2.195 -0.767,-1.514 -1.011,-1.717 -0.515,-1.759 -0.969,-0.085 z m 166.571,-49.653 -0.676,-0.644 0.221,-1.373 -1.574,-1.097 0.342,-1.067 1.117,0.656 1.373,0.87 1.176,-0.251 0.742,-1.085 -1.379,-1.263 -1.215,-1.005 -1.783,-0.423 -1.766,-0.104 -1.594,-0.227 1.471,-0.307 1.582,-0.343 -0.814,-0.968 -1.625,-1.012 -1.055,0.319 -0.018,-0.981 -0.111,-0.76 0.65,-0.889 -1.072,-0.815 -1.232,0.325 0.613,-1.913 -1.037,-1.165 -0.711,0.735 -1.232,-1.539 -1.52,-1.073 -1.826,-0.76 -1.092,0.564 -1.061,-0.853 -0.195,-1.079 1.459,-0.613 -0.908,-0.803 -1.857,-0.699 -1.428,-0.3 -1.318,-1.25 -1.404,-0.681 -0.52,-1.023 -1.092,-0.957 -1.055,-1.208 -0.986,-1.355 -0.607,-1.158 -1.146,-1.937 -1.617,-0.025 -1.257,0.858 0.503,1.159 -0.729,0.251 0.398,0.907 0.116,1.061 -0.398,1.104 -0.883,-1.318 -0.196,-1.054 -0.294,-0.546 -0.956,-0.447 -0.497,0.692 0.828,0.57 -0.381,0.644 -1.121,-0.821 -1.601,1.232 0.086,-0.821 0.999,-0.656 0.804,-1.165 -0.123,-1.104 -1.33,-0.073 -1.061,0.355 -1.03,-0.337 -1.568,-0.037 -1.331,0.834 -1.605,0.729 -0.668,1.201 -1.214,1.336 -0.312,1.385 0.374,1.245 -1.515,0.355 0.374,1.428 -2.029,-0.49 -2.084,1.275 -1.072,1.226 0.692,0.919 -0.073,0.926 -1.141,0.012 -0.546,0.889 -0.827,1.312 -0.355,1.447 1.729,-0.19 0.552,0.975 -0.447,1.809 -2.048,0.772 -1.115,0.932 -1.453,0.607 -0.453,1.318 0.07,0.085 1.033,0.834 1.055,-0.208 0.374,1.067 1.386,0.644 -1.281,0.417 -0.926,0.791 0.858,0.668 1.379,0.558 -0.582,0.76 0.999,0.742 1.851,0.521 1.012,-0.803 1.686,-0.361 1.558,-0.239 1.809,0.846 1.654,0.178 0.374,1.109 1.152,0.944 1.49,1.275 0.582,1.594 1.33,1.14 0.675,1.275 0.361,1.986 1.036,1.189 0.122,1.71 0.883,0.705 1.423,-0.368 0.318,-1.275 1.435,1.686 1.569,0.147 1.104,1.496 -2.262,-0.423 -1.691,0.361 0.343,2.005 0.411,1.992 1.918,0.833 1.637,-1.091 0.479,-1.808 1.465,1.729 0.779,2.544 -2.023,0.613 -0.43,1.637 0.307,2.096 0.631,1.974 0.988,1.587 0.643,1.692 2.213,1.245 1.398,1.778 0.797,2.004 1.465,0.809 0.705,1.392 2.482,2.096 0.865,0.993 1.766,1.673 1.543,1.428 2.527,1.429 2.311,-0.54 1.777,-0.006 1.619,1 2.623,0.288 0.797,-1.042 -0.197,-1.955 -0.76,-1.71 -0.508,-1.814 -0.154,-1.98 -1.844,-1.9 0.729,-1.686 0.123,-2.115 -0.619,-1.759 -0.865,-1.637 -2.078,-1.741 1.496,-0.362 -0.404,-1.526 1.146,-1.293 1.875,-1.005 0.902,-1.912 0.35,-1.625 0.184,-1.588 -0.387,-1.545 -0.521,-1.501 -0.115,-1.778 0.27,-1.287 1.348,-0.932 0.596,-1.575 0.777,-1.33 0.496,-1.576 0.221,-1.385 -0.066,-1.606 -0.025,-1.625 -0.393,-1.306 -1.256,0.68 -1.777,0.3 z m 14.416,10.733 0.963,-0.441 0.375,-1.146 1.084,-0.178 0.203,1.557 -0.283,1.925 1.43,-1.281 1.949,0.785 0.379,1.814 1.766,-1.661 1.674,-0.325 1.654,-0.828 0.057,-1.919 0.594,-1.122 -0.195,-1.759 0.361,-1.937 -0.846,-2.005 -1.76,-1.336 -1.527,0.393 -1.814,-1.269 -0.465,1.048 -1.201,-0.049 0.514,1.318 -0.115,1.103 -1.061,0.203 -0.596,1.128 0.35,0.999 -1.232,-0.104 1.35,1.33 -0.559,1.397 -1.697,-1.416 -1.613,-0.196 -0.949,0.411 0.693,0.649 -0.645,0.57 0.846,0.969 z m -99.611,-82.645 -1.747,-0.404 -1.14,0.343 -0.692,0.735 -0.835,0.859 -1.03,0.123 -0.337,0.84 0.049,0.889 0.595,0.331 1.097,-0.202 0.545,-0.312 1.68,-0.012 -0.178,-1 2.403,-0.123 0.644,-0.919 z m 34.101,-0.545 -1.392,0.435 -1.692,-0.061 -1.428,0.319 v 1.054 l 0.772,0.729 1.097,0.564 0.797,-0.337 0.595,-0.871 0.718,-1.012 z m 4.481,5.21 -0.073,-0.932 -1.214,-0.564 -0.288,-0.962 -1.397,-0.509 -1.073,-0.46 -1.134,0.086 0.092,0.907 -0.606,0.871 0.503,0.754 1.011,0.46 0.203,0.754 -0.436,0.515 0.515,0.619 0.344,0.607 1.624,-0.54 0.632,-0.864 z m 46.33,2.293 0.326,-1.073 0.189,-0.925 -0.754,-1.146 -1.08,-1.14 -1.084,-0.355 0.232,1.146 -0.68,0.723 -1.178,0.57 -1.439,0.374 -1.594,0.012 -1.73,-0.104 -1.734,-0.055 -1.723,-0.024 -1.912,-0.16 -1.74,0.025 -1.895,-0.319 -1.961,-0.282 -1.576,-0.502 -1.84,-0.368 -1.703,-0.251 -1.27,0.656 0.547,0.736 1.764,0.3 1.344,-0.135 1.771,0.606 1.33,0.871 2.109,0.478 1.605,0.129 1.109,0.062 1.82,0.637 0.92,-0.331 2.17,-0.098 1.918,0.251 0.596,-0.583 1.453,0.441 1.955,0.074 0.803,-0.417 1.482,0.527 z m 65.69,94.163 1.391,0.699 1.172,-0.116 0.588,-1.471 0.24,-1.576 -0.24,-1.968 0.553,-1.637 -1.018,-1.232 -1.049,-1.269 -1.496,-1.073 -1.336,-0.748 -0.416,-1.766 -1.588,-0.919 -1.221,-0.294 -0.791,0.748 -0.846,0.876 -0.146,1.471 0.809,1.594 0.92,-0.3 0.422,1.085 -0.52,0.834 -0.619,0.962 0.691,1.183 0.945,-0.3 0.221,1.354 1.396,0.098 0.467,-0.736 0.912,1.992 1.129,1.637 z m -323.198996,50.885 -0.404,0.883 -0.331,0.03 -0.436,1.557 -0.355,0.619 -0.031,1.085 0.325,-0.214 0.307,0.178 0.257,0.588 0.361,-0.012 0.062,-0.981 0.239,-0.919 0.018,-0.95 -0.024,-0.913 z M 138.684,15.01098 l -1.219,0.5 -0.715,0.337 -0.705,0.472 -0.331,0.325 -0.098,0.239 0.343,0.135 -0.423,0.429 -0.263,0.429 -0.583,0.613 0.497,0.104 0.355,0.135 0.981,-0.043 1.005,-0.098 0.699,0.08 0.245,0.251 0.086,0.337 0.128,0.264 0.914,-0.221 0.736,0.037 0.288,0.288 1.52,-0.515 1.361,-0.423 0.595,-0.024 1.526,-0.57 1.238,-0.588 0.233,-0.625 1.465,-0.833 -0.104,0.368 0.699,0.104 0.981,-0.515 0.098,-0.454 0.68,0.11 0.662,0.123 1.287,-0.637 1.545,-0.472 0.545,0.024 -1.018,0.674 -0.552,0.674 -0.656,0.662 -0.497,0.705 -0.147,0.668 -0.264,0.545 -0.54,0.687 -0.509,0.588 0.074,0.411 -0.037,0.502 -0.595,0.668 0.123,0.423 -0.545,0.674 -1.367,0.889 -1.502,0.871 -1.354,0.803 -0.846,0.245 -0.306,0.619 -1.705,0.785 -0.889,0.729 -1.116,0.594 0.264,0.141 0.454,0.153 -0.502,0.497 -1.306,0.595 -1.085,0.619 -0.479,0.515 -1.048,0.276 0.203,-0.644 -0.932,0.202 -0.907,0.681 -0.81,0.968 -0.123,0.454 -1.091,0.68 -1.257,1.238 1.054,-0.325 1.03,-0.681 0.834,0.423 0.447,0.583 -0.049,0.821 0.411,0.662 0.405,0.668 -0.65,1.042 -0.76,0.944 -1.14,0.674 -0.423,0.876 -1.073,-0.564 -1,0.074 -1.189,0.264 0.055,0.901 0.233,0.729 0.35,0.631 -0.393,0.717 h 1.16499 l 0.895,0.355 -0.57,1.238 -0.791,0.362 -0.123,-0.711 -0.111,0.008 -1.183,-0.167 -1.502,-0.147 -0.729,-0.251 0.368,-0.919 0.061,-0.821 -0.588,-0.362 -0.423,-0.717 -0.215,-0.925 -0.662,-0.441 -0.307,-0.736 -0.202,-0.833 0.275,-0.84 0.834,-0.76 -1.048,0.208 -0.637,-0.355 0.447,-0.76 -0.901,-0.257 -0.889,-0.245 -1.293,-0.031 -1.122,0.153 -1.441,0.288 -1.201,0.276 -1.649,0.349 -1.49,0.251 -1.857,0.613 -1.293,0.275 -0.98,0.153 -1.018,0.355 -0.203,0.748 0.147,0.619 0.687,0.435 h 1.189 l 0.037,0.656 -0.993,0.987 1.146,-0.27 1.14,-0.055 0.227,0.54 -0.521,0.914 -0.821,0.68 0.159,0.448 1.588,-0.674 1.416,-0.27 0.68,0.313 -0.123,0.582 -1.134,0.595 -0.012,0.478 1.533,-0.368 0.889,-0.558 1.134,-0.104 0.601,0.509 1.318,-0.772 0.086,-0.57 1.312,-0.27 0.674,0.417 0.533,0.631 0.907,0.227 0.987,0.128 -0.355,0.944 -1.048,0.705 0.423,0.613 -0.312,0.95 -1.68,0.128 0.619,0.681 0.141,0.729 -0.172,0.846 -0.999,1.116 -1.281,0.876 -1.392,0.724 1.238,0.233 0.129,0.907 0.405,0.876 0.497,0.767 0.558,0.754 -0.233,0.864 0.583,0.742 v 1.011 l 0.386,0.767 -0.619,1.392 -1.22,1.134 1.048,0.552 1.269,-0.693 1.833,-0.76 1.759,-0.546 1.208,-0.441 0.398,-0.925 1.379,-0.178 -0.815,1.324 0.423,0.883 0.257,0.398 0.011,0.061 0.252,0.24 1.508,0.202 1.374,-0.876 0.76,0.815 -1.447,0.38 -1.539,0.577 -0.57,0.95 0.319,0.637 -0.858,1.195 -1.477,0.472 -1.073,1.018 -1.41,1.477 -0.821,1.293 1.373,-0.061 1.005,0.386 1.716,-0.411 -0.196,1.208 1.061,0.27 0.76,0.601 1.6,-1.44 1.6,-1.22 0.846,-1.686 0.3,-1.379 1.582,-0.772 1.361,-1.024 1.483,-1.25 1.244,-1.33 1.435,-0.999 1.453,-0.975 0.063,-0.016 0.336,-0.242 1.256,-1.06 1.03,-1.159 1.367,-1.146 0.656,-1.312 0.932,-1.165 0.926,-1.134 1.005,-1.183 -1.888,-0.067 -1.6,0.331 -0.484,-0.527 0.233,-0.748 1.208,-0.184 1.14,-0.834 1.097,-0.006 -0.539,0.772 0.662,0.251 1.22,-0.938 -0.705,-0.551 -0.374,-0.619 1.349,-1.055 1.392,-1.324 0.956,-1.428 1.159,-1.238 1.619,-0.772 0.852,0.606 1.477,-0.012 1.342,-0.454 1.22,-0.883 1.379,-0.975 0.681,-1.079 0.883,-0.717 0.662,-0.778 0.901,0.288 1.361,-0.313 0.766,-0.564 1.208,-0.171 1.422,0.386 1.514,-0.595 1.416,-0.926 1.968,-0.564 1.453,-0.619 1.435,-0.601 1.759,-0.729 -1.165,-0.184 1.324,-0.668 -0.11,-0.521 -1.005,-0.264 -1.361,-0.282 1.747,-0.668 1.784,-0.981 1.183,-0.141 0.693,-0.479 0.165,-0.588 1.275,-0.147 1.68,0.227 -0.35,-0.729 -0.417,-0.687 0.307,-0.76 1.3,-0.117 1.637,0.257 1.477,0.509 -0.184,0.889 0.417,0.876 2.017,0.374 1.912,-0.221 2.434,-0.153 1.851,-0.454 -0.208,-0.613 -0.895,-0.429 1.324,-0.454 2.225,-0.3 H 203.25 l 0.171,0.748 1.49,-0.245 1.52,0.098 1.097,-0.288 1.134,-0.448 1.183,0.957 -0.331,0.674 1.3,0.031 0.435,-0.355 -1.404,-0.35 -0.38,-0.723 1.061,-0.098 0.944,0.214 1.116,0.239 0.625,-0.503 -0.791,-0.411 1.404,-0.386 1.336,-0.343 1.189,-0.031 -0.681,0.76 -0.078,0.031 -1.136,0.324 -1.299,0.84 -1.251,0.699 -1.312,0.914 -0.969,0.736 0.135,0.968 0.533,0.779 1.134,0.551 1.171,0.239 1.41,0.067 1.232,-0.055 0.251,-0.509 1.251,-0.037 -0.877,1.023 1.287,0.135 h 1.49 l -1.533,0.692 1.637,0.674 1.33,-0.65 1.355,-0.797 0.129,-0.999 1.771,0.11 -0.252,-0.681 2.575,-0.11 -0.473,0.607 2.17,-0.251 1.349,0.184 1.238,-0.478 1.606,-0.067 2.005,-0.117 1.446,-0.361 1.244,-0.38 0.473,-0.576 -0.024,-0.821 1.856,0.27 1.704,0.129 1.864,0.355 1.771,0.386 0.374,-1.073 0.745,-0.768 -1.177,-0.699 -0.129,-0.852 1.593,0.166 0.484,0.956 0.762,0.748 1.035,0.362 0.355,0.644 1.189,-0.08 -0.834,-0.987 0.895,-0.024 0.447,0.681 1.146,0.104 0.203,-0.791 -1.109,-0.914 -0.148,-0.552 1.453,0.871 1.43,0.883 -0.896,0.687 -1.176,0.417 -0.645,0.815 0.367,0.871 0.613,-0.098 -0.422,-0.723 0.527,-0.515 1.104,-0.257 1.25,0.166 1.539,-0.405 -0.068,-0.735 0.24,-0.772 1.305,-0.288 1.104,-0.54 0.803,-0.833 -1.717,-0.871 1.539,0.147 0.994,-0.545 0.631,-0.834 1.795,-0.03 1.398,-0.178 1.895,0.227 1.648,0.294 0.545,1.054 -2.297,-0.454 -1.459,-0.037 -1.613,0.086 -0.785,0.466 -1.25,0.257 0.381,0.999 -0.957,0.588 -1.207,0.65 -0.963,0.619 -0.963,0.631 0.043,0.932 -1.416,0.276 -0.08,0.033 -1.121,0.335 -0.656,0.466 0.926,0.993 -0.82,0.19 -0.209,0.668 1.33,0.245 1.385,-0.282 1.422,-0.27 1.232,-0.546 1.387,-0.257 1.924,0.264 1.104,-0.38 0.404,-0.729 1.344,-0.233 0.729,-0.349 -0.588,-0.699 0.527,-0.815 -0.301,-0.699 1.605,-0.227 0.404,0.748 0.025,0.735 0.777,0.822 0.398,0.803 0.848,0.699 0.275,0.993 1.018,0.864 0.668,1.312 -0.092,1.073 1.299,0.049 0.117,-0.601 -0.295,-0.876 0.547,-0.509 0.25,-0.668 1.189,0.19 0.857,0.398 0.859,-0.27 0.508,0.601 -1.477,0.447 1.293,0.509 1.729,0.423 0.791,0.852 1.123,0.693 1.201,0.055 -0.16,0.833 -1.312,0.362 1.484,0.552 1.477,0.583 1.387,0.772 1.402,0.564 1.613,0.803 1.195,0.717 1.74,-0.19 1.41,0.668 0.791,0.901 -0.637,0.534 0.195,0.852 -1.705,-0.423 -1.109,-1 -0.955,0.484 -0.338,0.57 0.816,1 0.312,1.116 0.686,-0.889 1.791,-0.123 1.777,0.221 0.037,-0.637 1.525,-0.08 1.436,0.509 0.061,0.729 0.43,0.962 1.525,0.638 1.459,0.993 1.594,0.858 0.98,-0.472 1.209,-0.466 0.533,1.208 0.043,0.846 -0.209,0.919 0.221,0.852 1.342,0.527 0.854,-0.705 -0.479,-0.803 1.58,0.11 0.797,1.373 -0.711,0.975 -0.189,1.097 -1.625,-0.166 -1.367,-0.129 -1.637,-0.141 -0.875,0.913 -0.436,0.779 -1.41,0.429 0.723,-0.822 -0.006,-0.081 -0.023,-1.041 0.307,-0.95 -0.203,-0.914 -0.312,-0.993 -0.098,-1.061 -1.018,-1.171 -1.49,-1.073 -1.484,-0.638 -1.568,0.019 -1.115,0.331 -0.484,0.864 -0.215,0.919 -0.516,0.914 -0.582,0.895 -0.25,1.042 0.084,1.177 0.314,1.263 -1.123,-0.049 -0.184,0.852 0.895,0.772 0.166,1.104 -0.771,1.018 -0.094,-1.085 -1.574,-1.103 -0.521,0.809 -0.527,0.876 -0.178,1.085 2.287,1 -1.416,0.061 1.439,1.005 -2.107,-0.319 0.791,0.791 1.287,0.662 -0.711,0.68 1.061,1.012 1.623,0.993 0.779,1.318 0.033,0.09 0.096,1.056 0.107,0.1 1.75,1.065 0.631,1.152 1.213,0.294 0.252,-0.49 1.221,1.177 -1.172,-0.208 0.908,0.864 -1.785,-0.699 1.189,1.116 0.883,1.128 0.896,-0.319 0.576,1.496 1.451,1.208 -1.158,-1.453 -0.27,-1.085 -0.301,-1.238 1.785,1.667 1.439,0.76 1.459,1.324 1.453,1.005 1.416,0.833 1.434,0.957 1.705,1.072 1.061,1.374 1.949,1.544 1.324,1.25 1.336,1.281 -0.943,0.331 1.342,1.116 1.012,1.104 0.043,1.336 1.238,1.483 0.92,1.348 0.9,1.502 1.189,0.141 0.957,1.097 1.434,0.503 1.398,0.619 1.494,0.055 0.994,1.03 1.127,0.355 -0.029,-1.159 0.912,1.257 1.324,0.871 0.932,-0.141 1.049,-0.729 0.49,-1.048 -0.607,-1.594 -0.955,-1.25 -1.215,-1.723 0.086,-0.692 -1.023,-0.969 0.883,-0.3 1.918,0.552 1.662,0.294 0.104,0.036 1.797,0.4 1.637,0.306 1.385,-0.214 1.023,0.895 1.355,0.171 1.035,0.527 0.043,-1.023 0.02,-0.889 -1.037,-0.386 -1.316,-1.397 v -0.992996 l -0.014,-0.883 -1.857,-1.446 -1.863,-1.067 -1.361,-0.828 -1.611,-0.68 -1.078,-0.668 -1.166,-1.496 -0.895,-1.355 -0.484,0.258 -0.883,-1.104 -0.852,-0.638 -1.092,-0.073 -1.018,0.484 -1.041,0.478 -1.393,-0.405 -1.686,-0.797 -1.686,-0.699 -0.871,-0.699 -1.752,-1.379 -1.201,-1.256 -0.939,-1.048 -0.98,-1.238 -1.213,-0.705 -1.25,-1.073 -0.736,0.545 -1.221,-0.858 -0.846,-0.123 -0.691,-0.785 -1.215,-0.729 0.117,-0.76 -0.154,-0.723 -0.441,-0.785 0.902,-0.681 1.703,0.343 0.76,0.864 1.857,1.055 1.594,1.293 1.883,1.416 1.594,1.397 1.766,0.987 1.66,0.398 1.582,-0.024 1.729,0.95 1.092,0.35 0.662,-0.724 0.699,-0.404 0.312,-1.055 -0.533,-1.299 -0.854,-1.361 -0.875,-1.355 -0.871,-1.33 -0.479,-1.502 0.986,-0.65 -0.576,-0.932 1.135,-0.233 -0.055,1.177 1.434,1.373 0.98,0.754 0.455,1.459 -0.172,1.073 0.582,1.312 0.527,1.195 1.012,1.171 1.354,0.436 1.275,0.098 0.074,-0.724 1.594,0.527 1.588,0.539 0.949,1 -0.072,0.748 -0.982,0.092 -0.662,0.429 0.473,1.177 1.674,1.091 1.121,0.889 1.834,0.729 1.551,0.515 1.631,1.152 2.279,2.452 0.613,1.018 0.092,0.907 -0.133,-0.003 -1.375,-0.181 0.344,1.404 0.594,1.545 1.055,1.551 0.27,1.428 0.76,1.729 -0.264,0.662 -0.557,0.638 -0.473,-0.919 -1.072,-0.019 0.748,1.048 0.215,1.195 0.447,0.932 0.705,1.22 -0.092,0.919 -0.988,-0.846 -0.938,1.005 -0.771,-0.441 -0.891,0.459 -1.494,-1.379 -1.49,-1.49 -0.424,-1.275 -1.041,-0.546 -0.098,0.865 -1.043,-0.552 -1.299,-1.061 -1.055,-0.533 0.141,1.091 0.975,1.146 0.123,1.244 0.693,1.042 1.004,0.827 1.57,0.882996 1.336,0.613 0.906,-0.312 1.551,0.895 1.098,0.08 0.441,0.821 0.854,-0.067 0.66,1.122 0.988,0.729 -0.65,0.478 -0.195,1.061 0.656,1 -0.307,1.458 0.299,1.257 1.264,0.828 0.398,-0.515 0.748,0.491 0.582,1.183 -0.668,0.337 -1.49,-0.999 0.135,0.705 1.152,1.103 0.896,1.097 0.826,1.22 0.773,1.379 0.215,1.312 0.385,1.643 0.178,1.33 0.854,1.005 1.152,1.054 0.207,1.067 0.498,5.167 -1.344,-0.558 -0.416,0.987 1.631,0.601 1.734,1.116 -0.418,0.987 -0.287,1.336 -1.152,-0.233 -0.312,1.318 0.055,1.257 -0.275,1.17 1.41,1.104 0.809,-0.294 0.416,-0.858 1.141,-0.386 0.742,-0.962 0.582,0.11 1.195,0.08 0.607,0.748 0.852,0.159 1.029,-0.288 1.295,0.564 1.451,1.551 1.436,1.576 1.018,1.177 1.342,1.747 0.064,0.077 0.365,1.008 -0.178,1.165 -0.705,0.852 -0.914,1.342 -0.336,1.986 -1.037,0.778 -0.92,1.165 -0.557,1.576 -0.688,1.213 -1.402,0.687 0.654,1.716 -0.465,1.275 0.312,1.128 1.846,0.821 0.895,1.293 0.857,0.754 1.35,1.048 0.857,1.324 0.945,1.673 1.188,1.778 0.363,1.569 0.992,1.544 1.023,0.441 0.496,-0.791 0.982,1.551 1.066,1.397 0.68,1.508 0.527,-1.41 0.785,-0.742 0.115,-1.281 0.484,-0.833 1.098,-0.312 0.723,0.349 1.416,0.705 0.908,-0.552 -0.361,-2.164 0.152,-1.478 0.412,-1.397 0.576,-1.208 0.551,-1.189 0.527,-1.195 -0.613,-1.802 -0.68,-2.33 -0.074,-0.153 -5.891,-12.953 v -0.11 l -0.068,-1.294 -0.012,-1.532 -0.473,-1.98 -0.324,-1.582 -1.502,-1.195 -1.312,-1.024 -0.312,-1.704 -0.416,-1.385 0.736,-0.723 0.533,-1.11 0.906,-0.558 0.049,-1.331 -0.711,-1.551 -0.428,-1.692 -0.215,-1.471 -0.811,-1.214 -0.293,-1.152 0.355,-0.785 0.539,-0.276 0.355,-0.95 1.33,0.877 1.152,0.398 1.164,-0.117 0.891,0.558 0.092,-0.993 1.127,-0.135 1.121,0.037 0.688,-0.484 0.055,-1.336 0.852,-0.171 0.639,-0.343 0.232,-0.484 1.012,0.325 0.404,-1.03 0.803,0.509 1.006,0.343 1.006,0.699 0.605,1.042 0.975,1.195 0.59,0.527 -0.012,-0.699 -0.016,-0.068 -0.586,-0.814 -0.613,-1.22 -0.975,-0.846 -0.447,-1.392 -1.012,-0.852 -0.564,0.533 -1.232,-1.361 -0.838,-1.177 0.373,-0.503 0.135,-0.864 0.797,0.466 0.166,-0.502 -0.859,-1.018 -0.932,0.221 -0.551,0.527 -0.57,0.527 -0.582,0.699 -0.398,0.674 -0.846,-1.159 0.023,1.667 -0.637,0.662 -0.656,0.49 -0.65,-0.006 -1.098,-0.668 -1.109,-0.349 -0.691,0.472 -0.705,0.294 -0.92,0.147 -0.895,-0.515 -0.889,-0.987 -0.705,-0.019 -0.883,-0.828 0.049,-0.772 -0.625,-1.434 0.258,-0.785 0.668,0.785 0.926,0.515 0.686,0.006 -0.441,-0.957 -0.889,-0.809 0.908,-0.619 1.127,0.631 h 0.668 l 0.877,0.638 0.65,-0.644 0.643,-0.012 0.172,-0.981 1.023,-0.668 1.012,-0.374 0.553,-0.681 0.748,-0.374 0.533,-0.533 1.072,0.95 1.465,1.281 1.238,0.962 0.516,-0.386 0.932,0.129 0.729,0.116 1.098,0.257 0.871,-0.049 -0.068,-1.416 -0.465,-1.729 0.631,-0.086 -0.068,-1.073 0.559,-0.411 -1.361,-1.104 0.111,-0.901 -0.197,0.545 -0.723,-0.423 -0.215,0.539 -0.436,0.246 -0.717,-0.282 -0.656,0.092 -0.883,-0.092 -1.447,-1.226 0.805,-0.27 -0.209,-1.018 -0.688,-0.796997 -0.502,0.061 -0.221,-1.011 -0.729,-0.938 -0.014,-0.852 -0.436,-0.999 -0.078,-1.005 0.625,-0.098 -0.479,-1.14 1.029,1.392 0.602,0.429 0.082,0.055 1.4,1.3 -0.674,-1.833 0.688,0.76 1.316,0.852 0.473,0.092 0.361,0.674 -0.373,0.258 0.809,0.754 0.092,-0.729 0.111,-0.589 0.832,0.791 0.295,-0.429 0.957,1.288 -0.332,-1.055 -0.336,-1.048 0.674,0.809 -0.41,-1.22 0.434,-0.662 -0.035,-0.766 -1.146,-2.01 -1.037,-1.067 -0.312,-1.066 -0.109,-1.128 0.484,0.042 -0.1,-0.748 -0.76,-1.159 -0.398,-0.846 -1.201,-1.569 -1.135,-1.398 -0.158,-0.956 -0.35,-0.668 -1.264,-1.551 0.441,0.233 1.086,1.208 0.502,0.19 0.877,0.883 1.379,1.103 0.926,0.668 1.215,1.397 1.428,1.521 1.25,1.397 1.158,1.25 1.129,1.238 1.312,1.643 0.975,1.324 0.943,1.809 0.736,1.422 -0.137,0.276 0.773,0.975 0.104,0.625 -0.723,-0.822 0.459,1.299997 0.676,1.459 0.975,1.771 0.895,1.606 0.57,1.3 -0.025,0.803 0.436,1.324 0.031,0.785 -0.049,0.583 0.227,1.171 0.207,1.14 0.498,1.477 -0.688,-0.3 0.318,1.33 -0.023,0.981 0.092,1.122 -0.785,-0.644 -0.092,0.95 0.104,1.336 0.375,1.478 0.539,1.667 1.012,2.213 0.033,0.076 2.906,3.516 0.07,0.038 0.576,1.342 0.43,1.324 -0.037,0.98 -0.564,0.398 -0.533,0.81 -0.232,1.526 -0.117,1.177 -0.473,0.583 -0.104,0.025 -0.387,-0.019 -1.01,-1.14 -0.344,0.932 -0.527,0.748 -0.203,1.152 -0.244,1.514 -0.092,1.49 -0.436,0.735 -0.639,0.742 -0.912,-0.631 0.086,1.152 -0.467,0.534 -0.912,-0.815 -0.449,-1.318 -0.605,-1.698 -0.859,-1.526 -0.918,-0.772 -0.455,0.35 -1.336,-0.987 -0.307,-1.104 -0.9,-1.49 0.416,2.011 -1.201,-0.613 -0.324,0.889 0.037,1.25 0.434,1.459 0.031,1.281 -0.674,1.201 0.215,1.3 -0.719,1.189 0.363,1.496 -0.068,1.263 -0.533,0.312 -0.516,1.012 -0.342,1.244 -0.043,1.091 -0.312,1.054 0.029,1.453 -0.258,1.643 -0.367,1.778 0.014,0.073 0.023,6.069 0.023,0.103 0.467,1.294 -0.066,2.072 -0.277,1.287 -1.072,0.552 -0.238,1.091 -0.662,1.373 -0.264,1.091 -1.393,0.484 -0.955,-0.386 -0.381,1.238 0.754,1.895 0.682,1.489 0.539,1.655 0.539,1.686 -0.049,2.146 -0.387,1.68 -0.141,1.747 0.373,1.876 0.068,1.814 0.619,0.944 0.436,1.729 0.006,1.41 1.482,2.403 0.939,0.454 0.662,2.207 0.238,1.943 0.104,2.066 -0.447,1.986 0.189,1.937 -0.611,2.158 -1.043,1.82 0.135,1.943 0.49,1.846 0.092,1.514 -0.447,1.803 -0.049,1.274 0.453,1.839 0.307,1.625 0.381,2.273 -0.16,2.158 -0.023,1.961 0.086,1.771 0.404,2.557 0.066,1.803 -0.307,1.459 0.436,1.703 0.436,1.688 1.17,0.098 1.246,0.385 0.049,0.066 0.508,1.436 -0.258,1.711 1.16,0.785 0.84,1.127 0.508,1.496 0.35,1.668 0.166,1.869 0.141,1.863 0.607,1.998 -0.277,1.949 -0.129,1.803 -0.611,1.668 1.023,-0.184 0.889,0.926 0.6,1.531 0.215,1.656 0.418,1.729 0.986,-0.209 0.963,-0.189 0.734,-1.221 0.596,1.771 0.9,-0.465 0.871,0.436 0.711,0.637 0.914,-0.252 0.998,0.227 0.816,0.406 0.404,1.244 0.367,0.986 0.479,0.814 1.098,0.234 0.975,-0.479 0.949,-0.49 0.865,0.141 1.225,-0.662 0.975,0.184 0.762,-0.08 0.875,-0.307 1.018,-0.281 0.791,-0.766 0.619,-0.797 0.633,-2.158 0.797,-1.723 0.459,-1.938 0.766,-1.703 0.725,-1.711 0.508,-1.281 0.619,-1.27 0.957,-1.439 0.605,-1.055 0.736,-0.797 0.381,-1.771 0.447,-1.646 0.029,-0.107 1.752,-6.955 0.064,-0.248 0.098,-1.58 0.441,-1.949 0.385,-1.551 0.412,-1.312 0.422,-1.76 0.436,-1.525 0.424,-0.846 0.496,-0.203 0.41,1.164 0.326,1.381 0.447,-0.645 0.287,-1.324 0.252,-1.551 0.232,-1.576 0.238,-1.33 0.166,-1.336 0.172,-1.098 0.178,1.115 0.178,-0.875 0.197,0.465 0.207,0.221 0.049,2.023 0.062,1.783 -0.02,1.588 -0.055,1.809 0.135,-0.453 -0.072,1.803 0.006,1.348 0.009,0.505 -0.046,1.052 -0.215,2.232 0.066,0.674 0.014,0.889 0.066,0.238 0.117,-0.956 c 0.569,-6.422 0.85898,-12.924 0.85898,-19.493 0,-120.396997 -97.601,-217.999997 -218.002,-217.999997 -27.938,0 -54.504,5.215 -79.052,14.791 m 210.105,119.261997 0.645,-0.613 -0.43,-1.741 1.104,-0.969 -1.012,-1.25 0.252,-1.306 1.023,-0.821 -0.246,-1.661 -0.082,-0.142 -1.219,-5.875 -0.053,-0.157 -0.406,-1.477 -1.09,-1.3 -1.109,-0.306 -0.816,0.552 h -0.11902 l -6.078,-0.246 -0.109,-0.02 -1.35,-0.397 -1.605,-0.834 -1.195,-0.239 -0.938,0.601 -0.436,0.944 -0.424,-1.263 -0.734,-1.299 -1.066,-1.379 -0.865,-1.048 -1.098,-0.594 -0.502,1.146 -0.424,0.914 -0.221,1.22 -1.055,-1.373 -0.49,-1.827 -0.875,-0.307 -0.332,1.385 -0.613,1.22 1.055,1.367 0.699,1.3 0.932,0.852 -0.846,0.312 0.221,0.821 h 1.06601 l 0.49,-0.913 1.184,1.716 1.012,0.778 -0.074,-1.195 1.189,1.067 0.459,1.704 0.453,-0.834 0.969,0.76 -0.832,-1.655 1.273,0.166 1.404,1.919 1.244,0.3 0.049,-1.49 0.025,-1.483 1.006,1.435 1.256,0.135 0.344,-0.754 1.004,1.447 1.227,0.95 -0.184,1.073 -0.914,1.213 0.848,0.325 0.686,1.293 0.453,-0.907 1.43,1.17 0.092,1.177 0.238,1.52 0.84,0.331 0.275,-1.269 0.645,-0.583 1.084,-0.208 -0.227,-1.63 0.92,1.477 -0.373,0.803 -0.441,0.925 0.84,1.68 0.502,1.6 0.445,1.767 z"
             id="path90"
             style="fill:#008066;stroke:#ffffff;stroke-width:0.191;stroke-miterlimit:10" />
          <path
             inkscape:connector-curvature="0"
             d="m 429.5,183.834 0.117,-1.097 0.324,0.239 0.301,0.864 0.092,-1.306 v -1.312 l 0.436,1.759 0.135,1.759 0.195,1.735 h -0.22702 l -0.287,-0.638 -0.246,0.208 -0.393,-0.662 -0.33,-0.214 -0.117,-1.335 z m -279.374,-67.068 1.637,1.109 1.943,0.944 0.429,1.483 -1.704,-0.098 -1.226,-0.141 -2.029,1.183 1.63,1.263 1.018,-0.791 1.845,-0.227 -0.65,1.104 -1.796,1.011 3.212,-0.202 0.343,-1.808 1.41,1.649 1.361,-0.926 1.269,-0.681 -1.777,-0.791 -1.318,-1.336 1.422,-0.129 1.502,-0.092 -0.754,-1.25 -2.219,-0.086 -1.814,-0.576 -1.716,-0.361 z m -2.557,21.026 0.632,1.913 1.06,0.638 1.539,0.165 0.551,0.668 0.932,-0.901 1.544,0.135 1.404,0.08 1.619,-1.263 1.686,-0.178 1.747,0.503 -0.006,-1.042 1.686,0.821 -1.134,-1.214 -1.061,-0.533 -1.489,-0.098 -0.987,0.54 -1.397,0.693 -1.097,-0.264 -0.693,-1.116 0.067,-1.048 -1.575,-0.919 -0.208,0.969 0.067,1.52 -1.208,-0.368 -0.828,0.956 -1.238,0.35 z m 3.317,12.787 1.312,1.048 1.171,-0.846 1.508,0.062 1.625,0.772 1.667,0.055 -0.65,-1 -0.938,-0.435 -0.49,-1.269 -0.791,-0.386 -1.582,0.981 -1.275,0.417 z m 10.151,14.167 2.066,-0.245 0.613,-1.459 0.613,-1.459 1.44,-0.484 -0.178,-2.054 -1.373,1.177 -1.091,0.919 -0.019,1.68 -0.95,0.975 z m 3.427,13.197 0.276,1.404 -0.086,1.956 0.766,1.232 -0.386,1.189 1.625,0.484 -0.374,1.87 1.275,-0.27 -0.65,1.435 -0.644,1.478 -0.466,1.532 1.496,-0.251 1.281,-2.292 -0.466,-1.741 -0.258,-2.403 0.031,-1.968 -0.123,-2.011 0.067,-1.956 -1.128,-0.656 -1.195,-0.368 z m -4.291,-0.429 0.037,2.023 1.183,-0.601 0.552,1.183 -0.846,0.717 -0.638,1.79 0.926,1.306 0.944,1.943 -0.404,1.226 0.337,1.422 -0.57,1.134 1.772,0.227 -0.074,-1.692 -0.435,-1.128 -0.153,-1.361 0.852,-1.41 -0.987,-0.625 -1.281,0.264 0.398,-2.225 0.84,-0.724 0.417,-1.183 -0.975,-1.637 z m 13.835,29.155 1.25,0.27 1.851,-0.595 0.736,1.778 2.078,-0.57 2.066,-0.596 2.164,-1.25 1.257,0.203 -1.907,0.998 -0.214,1.238 1.753,-0.018 0.827,1.71 1.698,0.257 2.292,-0.643 2.17,-0.025 -0.116,0.951 1.287,0.152 -0.447,-1.661 0.398,-1.526 -0.717,-1.048 0.166,-1.281 -1.882,-0.245 -0.871,-1.386 -0.54,-1.998 -2.041,-0.307 -1.674,-1.232 -1.048,1.103 -1.784,0.656 -1.073,1.122 -1.195,0.749 -1.771,0.275 -1.502,1.023 -1.698,0.932 z m 9.017,9.814 2.182,-0.963 -0.901,1.477 -0.405,1.209 -0.797,2.15 -0.699,1.465 v 1.619 l -0.331,2.182 0.638,2.029 1.165,0.178 1.226,-0.436 0.864,-1.176 0.767,-2.121 0.03,-1.92 -0.239,-1.648 0.214,-1.545 0.889,-1.489 0.668,-1.526 2.108,-0.674 1.11,-1.784 1.312,0.159 1.03,0.772 1.251,0.791 0.533,1.317 -0.227,2.201 -1.544,1.746 -0.141,1.289 1.25,-1.166 1.416,-0.471 0.502,1.961 0.515,1.961 1.931,-0.785 0.178,-2.242 0.833,-1.84 0.583,-1.52 -0.356,-1.33 1.435,1.716 2.201,1.104 0.969,-1.203 -1.202,-2.322 -1.195,-1.992 -2.372,-0.791 -1.698,-0.496 -1.753,-0.166 -1.717,-0.484 -1.299,-0.141 0.3,1.299 -2.17,-0.257 -1.061,-0.441 -1.343,0.135 -2.691,0.276 -0.65,-0.099 -1.048,1.109 -1.14,1.44 z m 10.906,12.327 1.802,1.141 1.637,0.154 1.667,-0.16 1.741,-0.814 1.68,-0.527 1.943,-0.834 1.673,-0.859 1.238,-1.195 -1.87,-0.098 -1.863,-0.109 -0.981,0.889 -1.146,-0.424 -1.643,0.215 -1.024,1.178 -1.956,0.783 -1.625,-0.158 z m 10.905,-4.831 1.367,0.387 1.888,-0.521 1.6,0.068 1.6,0.355 1.643,-0.264 1.839,-0.613 -0.196,-1.906 0.484,-1.252 -1.618,0.584 -0.926,0.932 -1.827,-0.355 -1.379,0.25 -1.827,0.27 -1.649,0.521 z m 195.18,-125.168 -0.404,-0.245 -0.375,-0.239 -0.312,-0.08 0.57,1.115 -1.029,-1.33 -1.055,-1.336 -0.871,-0.95 1.387,1.833 1.293,1.698 0.691,0.803 0.564,0.895 -0.098,0.294 -0.227,0.074 -0.393,-0.264 -0.318,-0.086 -0.633,-0.411 -0.588,-0.429 0.559,0.883 0.49,0.239 0.65,0.619 0.477,0.264 0.363,0.062 0.227,-0.067 0.588,0.607 0.295,0.116 0.576,0.638 0.428,0.257 0.473,0.466 0.479,0.448 0.35,0.288 0.441,0.459 0.086,-0.08 0.697,1.061 0.375,0.509 0.387,0.472 -0.092,-0.257 -0.186,-0.423 -0.221,-0.429 0.762,1.238 0.098,0.129 0.416,0.711 z m -24.889,-10.022 0.791,-0.147 0.914,0.35 0.508,-0.441 -0.012,-0.901 -0.258,-1.152 -0.723,-1.453 -0.232,-0.993 -1.006,-1.354 -1.018,-1.343 -1.029,-1.33 -0.994,-1.526 -0.33,-0.987 -0.627,-1.269 -0.668,-1.055 0.467,-0.165 -0.674,-1.257 0.643,-0.043 -0.441,-0.797 0.043,-0.595 -0.643,-0.901 -0.191,-0.717 -0.846,-1.189 -0.863,-1.183 -0.527,-0.987 -0.889,-1.165 -1.49,-1.49 -1.201,-1.208 -0.865,-0.558 -0.436,0.055 -0.76,-0.19 -0.086,0.245 0.221,0.896 -0.006,0.594 -0.215,0.288 -0.422,0.405 -0.062,0.588 0.32,0.778 -0.043,0.393 0.012,0.545 -0.57,0.049 0.332,0.582 0.777,1.14 0.283,0.791 1.096,1.208 0.662,0.999 0.926,0.919 0.871,1.134 -0.344,0.27 -1.207,-0.84 -0.154,0.374 0.068,0.84 -1.422,-1.281 -1.006,-1.41 -0.166,0.711 0.926,1.269 -0.072,1.011 -1.061,-0.864 0.496,1.165 0.428,1.054 1.27,0.993 1.184,1.201 0.828,1.293 1.25,0.533 1.006,0.803 0.746,1.159 1.098,1.116 1.055,0.607 1.336,0.925 0.602,1.245 1.318,0.932 z m -13.908,-17.673 0.146,-0.374 0.619,-0.037 -0.031,-0.68 -0.98,-1.232 -0.576,-1.036 -0.436,-1.054 -1.686,-1.306 -1.58,-1.33 -0.086,0.38 -0.387,0.153 -0.51,-0.852 -1.439,-1.33 -0.822,-1.054 -0.08,0.38 0.811,1.054 1.078,1.508 1.588,1.643 0.926,1.379 1.256,1.435 1.264,1.14 z m -11.274,-19.635 0.754,0.307 -0.209,-0.515 0.619,-0.085 0.736,0.312 0.926,0.411 0.473,-0.184 0.25,-0.282 -0.123,-0.447 0.338,-0.135 0.602,0.147 0.049,-0.405 -0.639,-0.803 1.012,0.932 1.215,0.913 1.287,0.84 0.791,0.509 0.691,0.729 1.043,0.545 0.834,0.429 0.834,0.466 -0.547,-0.692 -0.986,-1.067 0.189,0.019 -0.576,-0.772 -0.742,-0.803 -1.85,-1.655 -1.711,-1.471 -1.264,-1.165 -0.76,-0.515 -0.717,-0.319 -1.227,-0.723 -1.545,-1.012 0.607,0.595 -0.479,-0.159 -0.949,-0.546 1.348,1.214 -0.496,-0.196 -1.422,-0.889 -0.723,-0.778 -1.215,-1.067 -1.697,-1.214 0.129,0.356 0.072,0.343 -0.367,0.031 1.336,1.122 1.238,0.821 0.693,0.257 -0.424,0.067 -0.691,-0.239 -1.424,-0.901 -0.221,0.049 1.135,1.054 0.117,0.497 -0.791,-0.178 -0.393,0.239 0.57,0.772 -0.668,-0.331 -1.061,-1.048 -0.631,-0.711 -0.682,-0.006 -1.643,-1.14 -1.404,-1.195 -0.416,-0.693 -1.152,-0.932 -0.98,-0.858 0.029,0.319 -0.74,-0.153 -0.805,-0.092 -0.078,0.466 0.195,0.644 0.785,0.729 1.023,0.969 0.582,0.68 2.084,1.41 1.178,1.073 1.244,1.018 0.453,0.067 0.92,0.833 1.115,0.656 0.596,0.919 1.305,0.742 1.619,0.962 z m -19.365,-17.599 0.975,0.312 0.191,-0.067 1.115,0.38 -1.275,-0.944 -1.293,-0.932 0.006,-0.117 -1.625,-1.03 -2.059,-1.085 -0.926,-0.282 -0.969,-0.601 -1.109,-0.564 0.029,0.264 0.172,0.441 -0.471,-0.116 -1.43,-0.625 -1.273,-0.576 1.746,0.969 0.141,0.245 1.582,0.95 0.645,0.159 0.299,0.355 1.264,0.54 0.926,0.668 0.785,0.497 0.975,0.35 z M 221.369,0.878 l -2.176,-0.129 -1.784,0.067 -1.575,0.086 -0.748,0.239 -1.717,0.196 -1.9,0.141 -1.097,0.215 -1.422,0.343 -0.833,0.331 -0.055,0.312 -0.227,0.392 -0.411,0.374 0.944,0.067 0.472,-0.208 0.098,-0.227 0.65,-0.312 0.644,-0.3 0.662,-0.276 1.269,-0.288 1.269,-0.264 0.932,-0.196 1.141,-0.147 0.938,-0.172 0.975,-0.159 1.771,-0.037 z m 98.6,62.398 0.779,-0.503 1.164,-0.147 1.221,0.08 -0.227,-0.54 -0.926,-0.497 -0.418,-0.956 -1.23,-0.625 -1.043,-0.202 -0.895,0.214 -0.146,0.729 -0.59,0.356 0.338,0.828 1.084,0.882 z m -4.573,-5.928 0.588,-0.282 0.117,-0.729 1.281,0.196 -0.33,-0.613 -0.779,-0.582 -1.055,-0.147 -0.502,0.398 -0.877,0.153 -1.373,-0.263 -0.436,0.57 -0.068,0.803 0.607,-0.276 -0.049,-0.552 1.043,0.141 0.404,0.778 z"
             id="path92"
             style="fill:#008066;stroke:#ffffff;stroke-width:0.204;stroke-miterlimit:10" />
        </g>
      </g>
    </switch>
  </g>
  <path
     d="m 41.212469,64.083488 0.695829,-3.996551 -6.854714,-2.172586 c -0.111229,-1.434256 -0.471602,-2.826479 -1.056825,-4.12523 l 5.151356,-4.480485 -2.582439,-3.372177 -6.356415,2.906922 C 29.067604,47.897127 27.763603,47.114542 26.32615,46.525487 l 0.109057,-6.630615 -4.346107,-0.765738 -2.145015,6.276421 c -1.544229,0.06369 -3.038631,0.355255 -4.42902,0.856989 l -5.000396,-4.904216 -3.5641565,2.289203 3.3347845,5.975648 c -0.9886419,1.024174 -1.7984576,2.207509 -2.3842779,3.521674 l -7.17738256,-0.302455 -0.69641825,4.000066 6.85187751,2.17205 c 0.1112172,1.434282 0.4760545,2.823664 1.0606012,4.125933 L 2.7845649,67.620256 5.3675865,70.988903 11.727211,68.0862 c 1.137743,0.942904 2.445024,1.732383 3.87993,2.313702 l -0.106983,6.635508 4.346139,0.765739 2.138787,-6.280239 c 1.550278,-0.059 3.046286,-0.35392 4.435075,-0.852301 l 4.996562,4.903555 3.563584,-2.285717 -3.330376,-5.978474 c 0.984831,-1.024848 1.799084,-2.21101 2.38425,-3.521673 z M 12.927047,57.048912 c 0.711886,-4.088753 4.886032,-6.769193 9.328517,-5.986471 4.43868,0.782033 7.462704,4.729822 6.750701,8.819442 -0.711267,4.08525 -4.887672,6.761665 -9.327311,5.979468 -4.443406,-0.782903 -7.463169,-4.727191 -6.751907,-8.812439"
     id="path321-2-5"
     inkscape:connector-curvature="0"
     style="fill:#37c8ab;stroke-width:0.9293012" />
  <path
     d="m 44.993264,20.687551 0.344685,-2.154679 -3.635781,-0.928936 c -0.06708,-0.76117 -0.265635,-1.491552 -0.582478,-2.164569 l 2.696956,-2.562052 -1.38448,-1.711844 -3.343033,1.763232 C 38.480494,12.46198 37.786422,12.08867 37.023212,11.822696 L 37.0425,8.2829433 34.740837,8.0202077 33.643335,11.43929 c -0.815869,0.08573 -1.60409,0.291279 -2.33611,0.60544 l -2.67144,-2.4478543 -1.870679,1.3402573 1.797242,3.075062 c -0.516654,0.579323 -0.937852,1.237516 -1.239887,1.957994 l -3.795522,0.07919 -0.344994,2.156572 3.634278,0.928759 c 0.06708,0.761175 0.267971,1.489896 0.584489,2.164812 l -2.69897,2.561812 1.384843,1.709911 3.344746,-1.761112 c 0.606937,0.464605 1.302427,0.841933 2.064207,1.103898 l -0.01817,3.542282 2.301675,0.262737 1.094185,-3.42091 c 0.819122,-0.0834 1.608138,-0.290802 2.339346,-0.603139 l 2.669422,2.44762 1.870389,-1.33836 -1.794919,-3.076725 c 0.514627,-0.579541 0.938162,-1.239402 1.239897,-1.957992 z M 30.001646,17.883818 c 0.352638,-2.204381 2.54348,-3.773724 4.89619,-3.505157 2.35069,0.268329 3.971944,2.272335 3.619244,4.477194 -0.352329,2.202489 -2.544388,3.769768 -4.895572,3.501379 -2.353215,-0.268623 -3.97219,-2.270924 -3.6198,-4.473458"
     id="path321-2-5-2"
     inkscape:connector-curvature="0"
     style="fill:#93aca7;stroke-width:0.49356422" />
  <path
     d="m 57.004331,95.983676 0.695832,-3.99655 -6.854731,-2.172573 c -0.11123,-1.434255 -0.4716,-2.826465 -1.056801,-4.125244 l 5.151347,-4.480484 -2.582438,-3.372162 -6.356424,2.906905 c -1.141655,-0.94624 -2.445657,-1.728823 -3.88311,-2.317891 l 0.109058,-6.630616 -4.346099,-0.765738 -2.145021,6.276421 c -1.544239,0.06382 -3.038639,0.35527 -4.429019,0.856989 l -5.000396,-4.904202 -3.564154,2.289177 3.334777,5.975661 c -0.988662,1.024187 -1.798456,2.207494 -2.384283,3.521671 l -7.17738,-0.302453 -0.696421,4.000052 6.85187,2.172077 c 0.111216,1.434284 0.476064,2.823652 1.06061,4.125919 l -5.155139,4.479825 2.583022,3.36863 6.359632,-2.902701 c 1.137744,0.942901 2.445022,1.732381 3.879922,2.313711 l -0.106973,6.6355 4.34613,0.76577 2.138806,-6.28026 c 1.550277,-0.059 3.046275,-0.35393 4.435066,-0.85231 l 4.996575,4.90354 3.563568,-2.28569 -3.330375,-5.978489 c 0.984827,-1.02485 1.799083,-2.21101 2.384245,-3.521659 z m -28.28542,-7.034562 c 0.711878,-4.088752 4.886035,-6.769194 9.328517,-5.986471 4.438678,0.782034 7.462694,4.729808 6.750695,8.819442 -0.711266,4.085251 -4.887676,6.761652 -9.327311,5.979468 -4.443402,-0.782917 -7.463164,-4.727203 -6.751901,-8.812439"
     id="path321-2-5-23"
     inkscape:connector-curvature="0"
     style="fill:#c8b7c4;stroke-width:0.9293012" />
  <path
     d="m 87.086515,121.96956 0.741522,-4.34533 -7.304827,-2.36218 c -0.118534,-1.55942 -0.502566,-3.07313 -1.126193,-4.48526 l 5.489596,-4.87151 -2.752007,-3.66646 -6.7738,3.16059 c -1.216618,-1.02882 -2.606244,-1.87969 -4.138083,-2.52017 l 0.116219,-7.209288 -4.631473,-0.832566 -2.285867,6.824184 c -1.645637,0.0694 -3.238163,0.38627 -4.719838,0.93178 l -5.328732,-5.332208 -3.798184,2.488958 3.553745,6.49717 c -1.053579,1.11357 -1.916546,2.40015 -2.54084,3.82901 l -7.648662,-0.32884 -0.742149,4.34915 7.301778,2.36163 c 0.118519,1.55947 0.507323,3.07009 1.130252,4.486 l -5.493636,4.8708 2.752628,3.66262 6.777219,-3.15603 c 1.212451,1.02519 2.605567,1.88357 4.134686,2.51563 l -0.113997,7.2146 4.631506,0.8326 2.279244,-6.82835 c 1.652072,-0.0642 3.2463,-0.38482 4.726282,-0.9267 l 5.32466,5.33149 3.79756,-2.48517 -3.549055,-6.50025 c 1.049493,-1.11429 1.917215,-2.40397 2.5408,-3.829 z m -30.142699,-7.64848 c 0.758621,-4.44558 5.206862,-7.35996 9.941046,-6.50892 4.730131,0.85028 7.95271,5.14259 7.19396,9.58913 -0.757969,4.44178 -5.208611,7.35176 -9.939762,6.50131 -4.735165,-0.85124 -7.95321,-5.13975 -7.195244,-9.58152"
     id="path321-2-5-23-1"
     inkscape:connector-curvature="0"
     style="fill:#abc837;stroke-width:1.00031185" />
</svg>
